<?xml version="1.0" encoding="UTF-8"?>
<svg xmlns="http://www.w3.org/2000/svg" xmlns:xlink="http://www.w3.org/1999/xlink" width="446pt" height="265pt" viewBox="0 0 446 265" version="1.1">
<defs>
<g>
<symbol overflow="visible" id="s3rGQ4900-0">
<path style="stroke:none;" d="M 0.59375 2.125 L 0.59375 -8.46875 L 6.59375 -8.46875 L 6.59375 2.125 Z M 1.265625 1.453125 L 5.9375 1.453125 L 5.9375 -7.78125 L 1.265625 -7.78125 Z M 1.265625 1.453125 "/>
</symbol>
<symbol overflow="visible" id="s3rGQ4900-1">
<path style="stroke:none;" d="M 1.171875 -8.75 L 6.703125 -8.75 L 6.703125 -7.75 L 2.359375 -7.75 L 2.359375 -5.15625 L 6.53125 -5.15625 L 6.53125 -4.171875 L 2.359375 -4.171875 L 2.359375 -1 L 6.8125 -1 L 6.8125 0 L 1.171875 0 Z M 1.171875 -8.75 "/>
</symbol>
<symbol overflow="visible" id="s3rGQ4900-2">
<path style="stroke:none;" d="M 4.9375 -5.5625 C 4.8125 -5.625 4.675781 -5.671875 4.53125 -5.703125 C 4.394531 -5.742188 4.238281 -5.765625 4.0625 -5.765625 C 3.457031 -5.765625 2.988281 -5.566406 2.65625 -5.171875 C 2.332031 -4.773438 2.171875 -4.203125 2.171875 -3.453125 L 2.171875 0 L 1.09375 0 L 1.09375 -6.5625 L 2.171875 -6.5625 L 2.171875 -5.546875 C 2.398438 -5.941406 2.695312 -6.234375 3.0625 -6.421875 C 3.425781 -6.617188 3.867188 -6.71875 4.390625 -6.71875 C 4.460938 -6.71875 4.539062 -6.710938 4.625 -6.703125 C 4.71875 -6.691406 4.816406 -6.675781 4.921875 -6.65625 Z M 4.9375 -5.5625 "/>
</symbol>
<symbol overflow="visible" id="s3rGQ4900-3">
<path style="stroke:none;" d="M 3.671875 -5.8125 C 3.097656 -5.8125 2.640625 -5.582031 2.296875 -5.125 C 1.960938 -4.675781 1.796875 -4.0625 1.796875 -3.28125 C 1.796875 -2.488281 1.960938 -1.867188 2.296875 -1.421875 C 2.628906 -0.972656 3.085938 -0.75 3.671875 -0.75 C 4.242188 -0.75 4.695312 -0.972656 5.03125 -1.421875 C 5.375 -1.878906 5.546875 -2.5 5.546875 -3.28125 C 5.546875 -4.050781 5.375 -4.664062 5.03125 -5.125 C 4.695312 -5.582031 4.242188 -5.8125 3.671875 -5.8125 Z M 3.671875 -6.71875 C 4.609375 -6.71875 5.34375 -6.410156 5.875 -5.796875 C 6.414062 -5.191406 6.6875 -4.351562 6.6875 -3.28125 C 6.6875 -2.207031 6.414062 -1.363281 5.875 -0.75 C 5.34375 -0.132812 4.609375 0.171875 3.671875 0.171875 C 2.734375 0.171875 1.992188 -0.132812 1.453125 -0.75 C 0.921875 -1.363281 0.65625 -2.207031 0.65625 -3.28125 C 0.65625 -4.351562 0.921875 -5.191406 1.453125 -5.796875 C 1.992188 -6.410156 2.734375 -6.71875 3.671875 -6.71875 Z M 3.671875 -6.71875 "/>
</symbol>
<symbol overflow="visible" id="s3rGQ4900-4">
<path style="stroke:none;" d="M 1.015625 -2.59375 L 1.015625 -6.5625 L 2.09375 -6.5625 L 2.09375 -2.625 C 2.09375 -2.007812 2.210938 -1.546875 2.453125 -1.234375 C 2.703125 -0.921875 3.066406 -0.765625 3.546875 -0.765625 C 4.128906 -0.765625 4.585938 -0.945312 4.921875 -1.3125 C 5.265625 -1.6875 5.4375 -2.195312 5.4375 -2.84375 L 5.4375 -6.5625 L 6.515625 -6.5625 L 6.515625 0 L 5.4375 0 L 5.4375 -1.015625 C 5.175781 -0.609375 4.875 -0.304688 4.53125 -0.109375 C 4.1875 0.078125 3.785156 0.171875 3.328125 0.171875 C 2.566406 0.171875 1.988281 -0.0625 1.59375 -0.53125 C 1.207031 -1 1.015625 -1.6875 1.015625 -2.59375 Z M 3.734375 -6.71875 Z M 3.734375 -6.71875 "/>
</symbol>
<symbol overflow="visible" id="s3rGQ4901-0">
<path style="stroke:none;" d="M 0.59375 2.125 L 0.59375 -8.46875 L 6.59375 -8.46875 L 6.59375 2.125 Z M 1.265625 1.453125 L 5.9375 1.453125 L 5.9375 -7.78125 L 1.265625 -7.78125 Z M 1.265625 1.453125 "/>
</symbol>
<symbol overflow="visible" id="s3rGQ4901-1">
<path style="stroke:none;" d="M 4.9375 -5.5625 C 4.8125 -5.625 4.675781 -5.671875 4.53125 -5.703125 C 4.394531 -5.742188 4.238281 -5.765625 4.0625 -5.765625 C 3.457031 -5.765625 2.988281 -5.566406 2.65625 -5.171875 C 2.332031 -4.773438 2.171875 -4.203125 2.171875 -3.453125 L 2.171875 0 L 1.09375 0 L 1.09375 -6.5625 L 2.171875 -6.5625 L 2.171875 -5.546875 C 2.398438 -5.941406 2.695312 -6.234375 3.0625 -6.421875 C 3.425781 -6.617188 3.867188 -6.71875 4.390625 -6.71875 C 4.460938 -6.71875 4.539062 -6.710938 4.625 -6.703125 C 4.71875 -6.691406 4.816406 -6.675781 4.921875 -6.65625 Z M 4.9375 -5.5625 "/>
</symbol>
<symbol overflow="visible" id="s3rGQ4901-2">
<path style="stroke:none;" d="M 7.734375 -8.078125 L 7.734375 -6.828125 C 7.328125 -7.203125 6.898438 -7.476562 6.453125 -7.65625 C 6.003906 -7.84375 5.523438 -7.9375 5.015625 -7.9375 C 4.015625 -7.9375 3.25 -7.628906 2.71875 -7.015625 C 2.1875 -6.398438 1.921875 -5.515625 1.921875 -4.359375 C 1.921875 -3.210938 2.1875 -2.332031 2.71875 -1.71875 C 3.25 -1.101562 4.015625 -0.796875 5.015625 -0.796875 C 5.523438 -0.796875 6.003906 -0.890625 6.453125 -1.078125 C 6.898438 -1.265625 7.328125 -1.539062 7.734375 -1.90625 L 7.734375 -0.671875 C 7.316406 -0.390625 6.875 -0.175781 6.40625 -0.03125 C 5.945312 0.101562 5.460938 0.171875 4.953125 0.171875 C 3.617188 0.171875 2.570312 -0.234375 1.8125 -1.046875 C 1.050781 -1.859375 0.671875 -2.960938 0.671875 -4.359375 C 0.671875 -5.765625 1.050781 -6.875 1.8125 -7.6875 C 2.570312 -8.5 3.617188 -8.90625 4.953125 -8.90625 C 5.472656 -8.90625 5.960938 -8.832031 6.421875 -8.6875 C 6.890625 -8.550781 7.328125 -8.347656 7.734375 -8.078125 Z M 7.734375 -8.078125 "/>
</symbol>
<symbol overflow="visible" id="s3rGQ4901-3">
<path style="stroke:none;" d="M 6.59375 -3.96875 L 6.59375 0 L 5.515625 0 L 5.515625 -3.921875 C 5.515625 -4.546875 5.390625 -5.007812 5.140625 -5.3125 C 4.898438 -5.625 4.539062 -5.78125 4.0625 -5.78125 C 3.476562 -5.78125 3.015625 -5.59375 2.671875 -5.21875 C 2.335938 -4.851562 2.171875 -4.347656 2.171875 -3.703125 L 2.171875 0 L 1.09375 0 L 1.09375 -6.5625 L 2.171875 -6.5625 L 2.171875 -5.546875 C 2.429688 -5.941406 2.734375 -6.234375 3.078125 -6.421875 C 3.429688 -6.617188 3.835938 -6.71875 4.296875 -6.71875 C 5.046875 -6.71875 5.613281 -6.484375 6 -6.015625 C 6.394531 -5.554688 6.59375 -4.875 6.59375 -3.96875 Z M 6.59375 -3.96875 "/>
</symbol>
<symbol overflow="visible" id="s3rGQ4902-0">
<path style="stroke:none;" d="M 0.59375 2.125 L 0.59375 -8.46875 L 6.59375 -8.46875 L 6.59375 2.125 Z M 1.265625 1.453125 L 5.9375 1.453125 L 5.9375 -7.78125 L 1.265625 -7.78125 Z M 1.265625 1.453125 "/>
</symbol>
<symbol overflow="visible" id="s3rGQ4902-1">
<path style="stroke:none;" d="M 3.671875 -5.8125 C 3.097656 -5.8125 2.640625 -5.582031 2.296875 -5.125 C 1.960938 -4.675781 1.796875 -4.0625 1.796875 -3.28125 C 1.796875 -2.488281 1.960938 -1.867188 2.296875 -1.421875 C 2.628906 -0.972656 3.085938 -0.75 3.671875 -0.75 C 4.242188 -0.75 4.695312 -0.972656 5.03125 -1.421875 C 5.375 -1.878906 5.546875 -2.5 5.546875 -3.28125 C 5.546875 -4.050781 5.375 -4.664062 5.03125 -5.125 C 4.695312 -5.582031 4.242188 -5.8125 3.671875 -5.8125 Z M 3.671875 -6.71875 C 4.609375 -6.71875 5.34375 -6.410156 5.875 -5.796875 C 6.414062 -5.191406 6.6875 -4.351562 6.6875 -3.28125 C 6.6875 -2.207031 6.414062 -1.363281 5.875 -0.75 C 5.34375 -0.132812 4.609375 0.171875 3.671875 0.171875 C 2.734375 0.171875 1.992188 -0.132812 1.453125 -0.75 C 0.921875 -1.363281 0.65625 -2.207031 0.65625 -3.28125 C 0.65625 -4.351562 0.921875 -5.191406 1.453125 -5.796875 C 1.992188 -6.410156 2.734375 -6.71875 3.671875 -6.71875 Z M 3.671875 -6.71875 "/>
</symbol>
<symbol overflow="visible" id="s3rGQ4902-2">
<path style="stroke:none;" d="M 4.9375 -5.5625 C 4.8125 -5.625 4.675781 -5.671875 4.53125 -5.703125 C 4.394531 -5.742188 4.238281 -5.765625 4.0625 -5.765625 C 3.457031 -5.765625 2.988281 -5.566406 2.65625 -5.171875 C 2.332031 -4.773438 2.171875 -4.203125 2.171875 -3.453125 L 2.171875 0 L 1.09375 0 L 1.09375 -6.5625 L 2.171875 -6.5625 L 2.171875 -5.546875 C 2.398438 -5.941406 2.695312 -6.234375 3.0625 -6.421875 C 3.425781 -6.617188 3.867188 -6.71875 4.390625 -6.71875 C 4.460938 -6.71875 4.539062 -6.710938 4.625 -6.703125 C 4.71875 -6.691406 4.816406 -6.675781 4.921875 -6.65625 Z M 4.9375 -5.5625 "/>
</symbol>
<symbol overflow="visible" id="s3rGQ4902-3">
<path style="stroke:none;" d=""/>
</symbol>
<symbol overflow="visible" id="s3rGQ4902-4">
<path style="stroke:none;" d="M 2.203125 -8.421875 L 2.203125 -6.5625 L 4.421875 -6.5625 L 4.421875 -5.71875 L 2.203125 -5.71875 L 2.203125 -2.15625 C 2.203125 -1.625 2.273438 -1.28125 2.421875 -1.125 C 2.566406 -0.976562 2.863281 -0.90625 3.3125 -0.90625 L 4.421875 -0.90625 L 4.421875 0 L 3.3125 0 C 2.476562 0 1.898438 -0.15625 1.578125 -0.46875 C 1.265625 -0.78125 1.109375 -1.34375 1.109375 -2.15625 L 1.109375 -5.71875 L 0.328125 -5.71875 L 0.328125 -6.5625 L 1.109375 -6.5625 L 1.109375 -8.421875 Z M 2.203125 -8.421875 "/>
</symbol>
<symbol overflow="visible" id="s3rGQ4903-0">
<path style="stroke:none;" d="M 0.59375 2.125 L 0.59375 -8.46875 L 6.59375 -8.46875 L 6.59375 2.125 Z M 1.265625 1.453125 L 5.9375 1.453125 L 5.9375 -7.78125 L 1.265625 -7.78125 Z M 1.265625 1.453125 "/>
</symbol>
<symbol overflow="visible" id="s3rGQ4903-1">
<path style="stroke:none;" d="M 3.8125 -7.96875 C 3.207031 -7.96875 2.75 -7.664062 2.4375 -7.0625 C 2.132812 -6.46875 1.984375 -5.566406 1.984375 -4.359375 C 1.984375 -3.160156 2.132812 -2.257812 2.4375 -1.65625 C 2.75 -1.0625 3.207031 -0.765625 3.8125 -0.765625 C 4.425781 -0.765625 4.882812 -1.0625 5.1875 -1.65625 C 5.5 -2.257812 5.65625 -3.160156 5.65625 -4.359375 C 5.65625 -5.566406 5.5 -6.46875 5.1875 -7.0625 C 4.882812 -7.664062 4.425781 -7.96875 3.8125 -7.96875 Z M 3.8125 -8.90625 C 4.789062 -8.90625 5.539062 -8.515625 6.0625 -7.734375 C 6.582031 -6.960938 6.84375 -5.835938 6.84375 -4.359375 C 6.84375 -2.890625 6.582031 -1.765625 6.0625 -0.984375 C 5.539062 -0.210938 4.789062 0.171875 3.8125 0.171875 C 2.832031 0.171875 2.082031 -0.210938 1.5625 -0.984375 C 1.050781 -1.765625 0.796875 -2.890625 0.796875 -4.359375 C 0.796875 -5.835938 1.050781 -6.960938 1.5625 -7.734375 C 2.082031 -8.515625 2.832031 -8.90625 3.8125 -8.90625 Z M 3.8125 -8.90625 "/>
</symbol>
<symbol overflow="visible" id="s3rGQ4903-2">
<path style="stroke:none;" d="M 2.296875 -1 L 6.4375 -1 L 6.4375 0 L 0.875 0 L 0.875 -1 C 1.320312 -1.457031 1.929688 -2.078125 2.703125 -2.859375 C 3.484375 -3.648438 3.972656 -4.160156 4.171875 -4.390625 C 4.554688 -4.804688 4.820312 -5.160156 4.96875 -5.453125 C 5.125 -5.753906 5.203125 -6.046875 5.203125 -6.328125 C 5.203125 -6.796875 5.035156 -7.175781 4.703125 -7.46875 C 4.378906 -7.757812 3.957031 -7.90625 3.4375 -7.90625 C 3.0625 -7.90625 2.664062 -7.84375 2.25 -7.71875 C 1.84375 -7.59375 1.40625 -7.394531 0.9375 -7.125 L 0.9375 -8.328125 C 1.414062 -8.515625 1.859375 -8.65625 2.265625 -8.75 C 2.679688 -8.851562 3.0625 -8.90625 3.40625 -8.90625 C 4.3125 -8.90625 5.035156 -8.675781 5.578125 -8.21875 C 6.117188 -7.769531 6.390625 -7.164062 6.390625 -6.40625 C 6.390625 -6.050781 6.320312 -5.710938 6.1875 -5.390625 C 6.050781 -5.066406 5.804688 -4.6875 5.453125 -4.25 C 5.347656 -4.132812 5.035156 -3.804688 4.515625 -3.265625 C 3.992188 -2.722656 3.253906 -1.96875 2.296875 -1 Z M 2.296875 -1 "/>
</symbol>
<symbol overflow="visible" id="s3rGQ4904-0">
<path style="stroke:none;" d="M 0.59375 2.125 L 0.59375 -8.46875 L 6.59375 -8.46875 L 6.59375 2.125 Z M 1.265625 1.453125 L 5.9375 1.453125 L 5.9375 -7.78125 L 1.265625 -7.78125 Z M 1.265625 1.453125 "/>
</symbol>
<symbol overflow="visible" id="s3rGQ4904-1">
<path style="stroke:none;" d="M 4.53125 -7.71875 L 1.546875 -3.046875 L 4.53125 -3.046875 Z M 4.21875 -8.75 L 5.71875 -8.75 L 5.71875 -3.046875 L 6.96875 -3.046875 L 6.96875 -2.0625 L 5.71875 -2.0625 L 5.71875 0 L 4.53125 0 L 4.53125 -2.0625 L 0.59375 -2.0625 L 0.59375 -3.203125 Z M 4.21875 -8.75 "/>
</symbol>
<symbol overflow="visible" id="s3rGQ4905-0">
<path style="stroke:none;" d="M 0.59375 2.125 L 0.59375 -8.46875 L 6.59375 -8.46875 L 6.59375 2.125 Z M 1.265625 1.453125 L 5.9375 1.453125 L 5.9375 -7.78125 L 1.265625 -7.78125 Z M 1.265625 1.453125 "/>
</symbol>
<symbol overflow="visible" id="s3rGQ4905-1">
<path style="stroke:none;" d="M 3.8125 -7.96875 C 3.207031 -7.96875 2.75 -7.664062 2.4375 -7.0625 C 2.132812 -6.46875 1.984375 -5.566406 1.984375 -4.359375 C 1.984375 -3.160156 2.132812 -2.257812 2.4375 -1.65625 C 2.75 -1.0625 3.207031 -0.765625 3.8125 -0.765625 C 4.425781 -0.765625 4.882812 -1.0625 5.1875 -1.65625 C 5.5 -2.257812 5.65625 -3.160156 5.65625 -4.359375 C 5.65625 -5.566406 5.5 -6.46875 5.1875 -7.0625 C 4.882812 -7.664062 4.425781 -7.96875 3.8125 -7.96875 Z M 3.8125 -8.90625 C 4.789062 -8.90625 5.539062 -8.515625 6.0625 -7.734375 C 6.582031 -6.960938 6.84375 -5.835938 6.84375 -4.359375 C 6.84375 -2.890625 6.582031 -1.765625 6.0625 -0.984375 C 5.539062 -0.210938 4.789062 0.171875 3.8125 0.171875 C 2.832031 0.171875 2.082031 -0.210938 1.5625 -0.984375 C 1.050781 -1.765625 0.796875 -2.890625 0.796875 -4.359375 C 0.796875 -5.835938 1.050781 -6.960938 1.5625 -7.734375 C 2.082031 -8.515625 2.832031 -8.90625 3.8125 -8.90625 Z M 3.8125 -8.90625 "/>
</symbol>
<symbol overflow="visible" id="s3rGQ4906-0">
<path style="stroke:none;" d="M 2.125 -0.59375 L -8.46875 -0.59375 L -8.46875 -6.59375 L 2.125 -6.59375 Z M 1.453125 -1.265625 L 1.453125 -5.9375 L -7.78125 -5.9375 L -7.78125 -1.265625 Z M 1.453125 -1.265625 "/>
</symbol>
<symbol overflow="visible" id="s3rGQ4906-1">
<path style="stroke:none;" d="M -8.75 -1.171875 L -8.75 -6.203125 L -7.75 -6.203125 L -7.75 -2.359375 L -5.171875 -2.359375 L -5.171875 -5.828125 L -4.171875 -5.828125 L -4.171875 -2.359375 L 0 -2.359375 L 0 -1.171875 Z M -8.75 -1.171875 "/>
</symbol>
<symbol overflow="visible" id="s3rGQ4906-2">
<path style="stroke:none;" d="M -3.96875 -6.59375 L 0 -6.59375 L 0 -5.515625 L -3.921875 -5.515625 C -4.546875 -5.515625 -5.007812 -5.390625 -5.3125 -5.140625 C -5.625 -4.898438 -5.78125 -4.539062 -5.78125 -4.0625 C -5.78125 -3.476562 -5.59375 -3.015625 -5.21875 -2.671875 C -4.851562 -2.335938 -4.347656 -2.171875 -3.703125 -2.171875 L 0 -2.171875 L 0 -1.09375 L -6.5625 -1.09375 L -6.5625 -2.171875 L -5.546875 -2.171875 C -5.941406 -2.429688 -6.234375 -2.734375 -6.421875 -3.078125 C -6.617188 -3.429688 -6.71875 -3.835938 -6.71875 -4.296875 C -6.71875 -5.046875 -6.484375 -5.613281 -6.015625 -6 C -5.554688 -6.394531 -4.875 -6.59375 -3.96875 -6.59375 Z M -3.96875 -6.59375 "/>
</symbol>
<symbol overflow="visible" id="s3rGQ4906-3">
<path style="stroke:none;" d="M -3.359375 -5.453125 C -4.140625 -5.453125 -4.742188 -5.289062 -5.171875 -4.96875 C -5.597656 -4.644531 -5.8125 -4.191406 -5.8125 -3.609375 C -5.8125 -3.035156 -5.597656 -2.585938 -5.171875 -2.265625 C -4.742188 -1.941406 -4.140625 -1.78125 -3.359375 -1.78125 C -2.578125 -1.78125 -1.972656 -1.941406 -1.546875 -2.265625 C -1.117188 -2.585938 -0.90625 -3.035156 -0.90625 -3.609375 C -0.90625 -4.191406 -1.117188 -4.644531 -1.546875 -4.96875 C -1.972656 -5.289062 -2.578125 -5.453125 -3.359375 -5.453125 Z M -0.8125 -6.53125 C 0.300781 -6.53125 1.128906 -6.28125 1.671875 -5.78125 C 2.222656 -5.289062 2.5 -4.53125 2.5 -3.5 C 2.5 -3.125 2.46875 -2.765625 2.40625 -2.421875 C 2.351562 -2.085938 2.269531 -1.765625 2.15625 -1.453125 L 1.109375 -1.453125 C 1.273438 -1.765625 1.398438 -2.078125 1.484375 -2.390625 C 1.566406 -2.703125 1.609375 -3.015625 1.609375 -3.328125 C 1.609375 -4.035156 1.421875 -4.566406 1.046875 -4.921875 C 0.679688 -5.273438 0.125 -5.453125 -0.625 -5.453125 L -1.15625 -5.453125 C -0.769531 -5.222656 -0.476562 -4.9375 -0.28125 -4.59375 C -0.09375 -4.25 0 -3.832031 0 -3.34375 C 0 -2.539062 -0.304688 -1.890625 -0.921875 -1.390625 C -1.535156 -0.898438 -2.347656 -0.65625 -3.359375 -0.65625 C -4.367188 -0.65625 -5.179688 -0.898438 -5.796875 -1.390625 C -6.410156 -1.890625 -6.71875 -2.539062 -6.71875 -3.34375 C -6.71875 -3.832031 -6.617188 -4.25 -6.421875 -4.59375 C -6.234375 -4.9375 -5.945312 -5.222656 -5.5625 -5.453125 L -6.5625 -5.453125 L -6.5625 -6.53125 Z M -0.8125 -6.53125 "/>
</symbol>
<symbol overflow="visible" id="s3rGQ4906-4">
<path style="stroke:none;" d="M -5.8125 -3.671875 C -5.8125 -3.097656 -5.582031 -2.640625 -5.125 -2.296875 C -4.675781 -1.960938 -4.0625 -1.796875 -3.28125 -1.796875 C -2.488281 -1.796875 -1.867188 -1.960938 -1.421875 -2.296875 C -0.972656 -2.628906 -0.75 -3.085938 -0.75 -3.671875 C -0.75 -4.242188 -0.972656 -4.695312 -1.421875 -5.03125 C -1.878906 -5.375 -2.5 -5.546875 -3.28125 -5.546875 C -4.050781 -5.546875 -4.664062 -5.375 -5.125 -5.03125 C -5.582031 -4.695312 -5.8125 -4.242188 -5.8125 -3.671875 Z M -6.71875 -3.671875 C -6.71875 -4.609375 -6.410156 -5.34375 -5.796875 -5.875 C -5.191406 -6.414062 -4.351562 -6.6875 -3.28125 -6.6875 C -2.207031 -6.6875 -1.363281 -6.414062 -0.75 -5.875 C -0.132812 -5.34375 0.171875 -4.609375 0.171875 -3.671875 C 0.171875 -2.734375 -0.132812 -1.992188 -0.75 -1.453125 C -1.363281 -0.921875 -2.207031 -0.65625 -3.28125 -0.65625 C -4.351562 -0.65625 -5.191406 -0.921875 -5.796875 -1.453125 C -6.410156 -1.992188 -6.71875 -2.734375 -6.71875 -3.671875 Z M -6.71875 -3.671875 "/>
</symbol>
<symbol overflow="visible" id="s3rGQ4907-0">
<path style="stroke:none;" d="M 2.125 -0.59375 L -8.46875 -0.59375 L -8.46875 -6.59375 L 2.125 -6.59375 Z M 1.453125 -1.265625 L 1.453125 -5.9375 L -7.78125 -5.9375 L -7.78125 -1.265625 Z M 1.453125 -1.265625 "/>
</symbol>
<symbol overflow="visible" id="s3rGQ4907-1">
<path style="stroke:none;" d="M -6.5625 -1.125 L -6.5625 -2.203125 L 0 -2.203125 L 0 -1.125 Z M -9.125 -1.125 L -9.125 -2.203125 L -7.75 -2.203125 L -7.75 -1.125 Z M -9.125 -1.125 "/>
</symbol>
<symbol overflow="visible" id="s3rGQ4907-2">
<path style="stroke:none;" d="M -9.125 -1.125 L -9.125 -2.203125 L 0 -2.203125 L 0 -1.125 Z M -9.125 -1.125 "/>
</symbol>
<symbol overflow="visible" id="s3rGQ4908-0">
<path style="stroke:none;" d="M 2.125 -0.59375 L -8.46875 -0.59375 L -8.46875 -6.59375 L 2.125 -6.59375 Z M 1.453125 -1.265625 L 1.453125 -5.9375 L -7.78125 -5.9375 L -7.78125 -1.265625 Z M 1.453125 -1.265625 "/>
</symbol>
<symbol overflow="visible" id="s3rGQ4908-1">
<path style="stroke:none;" d="M -6.5625 -1.125 L -6.5625 -2.203125 L 0 -2.203125 L 0 -1.125 Z M -9.125 -1.125 L -9.125 -2.203125 L -7.75 -2.203125 L -7.75 -1.125 Z M -9.125 -1.125 "/>
</symbol>
<symbol overflow="visible" id="s3rGQ4908-2">
<path style="stroke:none;" d=""/>
</symbol>
<symbol overflow="visible" id="s3rGQ4908-3">
<path style="stroke:none;" d="M -8.078125 -7.734375 L -6.828125 -7.734375 C -7.203125 -7.328125 -7.476562 -6.898438 -7.65625 -6.453125 C -7.84375 -6.003906 -7.9375 -5.523438 -7.9375 -5.015625 C -7.9375 -4.015625 -7.628906 -3.25 -7.015625 -2.71875 C -6.398438 -2.1875 -5.515625 -1.921875 -4.359375 -1.921875 C -3.210938 -1.921875 -2.332031 -2.1875 -1.71875 -2.71875 C -1.101562 -3.25 -0.796875 -4.015625 -0.796875 -5.015625 C -0.796875 -5.523438 -0.890625 -6.003906 -1.078125 -6.453125 C -1.265625 -6.898438 -1.539062 -7.328125 -1.90625 -7.734375 L -0.671875 -7.734375 C -0.390625 -7.316406 -0.175781 -6.875 -0.03125 -6.40625 C 0.101562 -5.945312 0.171875 -5.460938 0.171875 -4.953125 C 0.171875 -3.617188 -0.234375 -2.570312 -1.046875 -1.8125 C -1.859375 -1.050781 -2.960938 -0.671875 -4.359375 -0.671875 C -5.765625 -0.671875 -6.875 -1.050781 -7.6875 -1.8125 C -8.5 -2.570312 -8.90625 -3.617188 -8.90625 -4.953125 C -8.90625 -5.472656 -8.832031 -5.960938 -8.6875 -6.421875 C -8.550781 -6.890625 -8.347656 -7.328125 -8.078125 -7.734375 Z M -8.078125 -7.734375 "/>
</symbol>
<symbol overflow="visible" id="s3rGQ4909-0">
<path style="stroke:none;" d="M 2.125 -0.59375 L -8.46875 -0.59375 L -8.46875 -6.59375 L 2.125 -6.59375 Z M 1.453125 -1.265625 L 1.453125 -5.9375 L -7.78125 -5.9375 L -7.78125 -1.265625 Z M 1.453125 -1.265625 "/>
</symbol>
<symbol overflow="visible" id="s3rGQ4909-1">
<path style="stroke:none;" d="M -2.59375 -1.015625 L -6.5625 -1.015625 L -6.5625 -2.09375 L -2.625 -2.09375 C -2.007812 -2.09375 -1.546875 -2.210938 -1.234375 -2.453125 C -0.921875 -2.703125 -0.765625 -3.066406 -0.765625 -3.546875 C -0.765625 -4.128906 -0.945312 -4.585938 -1.3125 -4.921875 C -1.6875 -5.265625 -2.195312 -5.4375 -2.84375 -5.4375 L -6.5625 -5.4375 L -6.5625 -6.515625 L 0 -6.515625 L 0 -5.4375 L -1.015625 -5.4375 C -0.609375 -5.175781 -0.304688 -4.875 -0.109375 -4.53125 C 0.078125 -4.1875 0.171875 -3.785156 0.171875 -3.328125 C 0.171875 -2.566406 -0.0625 -1.988281 -0.53125 -1.59375 C -1 -1.207031 -1.6875 -1.015625 -2.59375 -1.015625 Z M -6.71875 -3.734375 Z M -6.71875 -3.734375 "/>
</symbol>
<symbol overflow="visible" id="s3rGQ4909-2">
<path style="stroke:none;" d="M -3.96875 -6.59375 L 0 -6.59375 L 0 -5.515625 L -3.921875 -5.515625 C -4.546875 -5.515625 -5.007812 -5.390625 -5.3125 -5.140625 C -5.625 -4.898438 -5.78125 -4.539062 -5.78125 -4.0625 C -5.78125 -3.476562 -5.59375 -3.015625 -5.21875 -2.671875 C -4.851562 -2.335938 -4.347656 -2.171875 -3.703125 -2.171875 L 0 -2.171875 L 0 -1.09375 L -6.5625 -1.09375 L -6.5625 -2.171875 L -5.546875 -2.171875 C -5.941406 -2.429688 -6.234375 -2.734375 -6.421875 -3.078125 C -6.617188 -3.429688 -6.71875 -3.835938 -6.71875 -4.296875 C -6.71875 -5.046875 -6.484375 -5.613281 -6.015625 -6 C -5.554688 -6.394531 -4.875 -6.59375 -3.96875 -6.59375 Z M -3.96875 -6.59375 "/>
</symbol>
<symbol overflow="visible" id="s3rGQ4909-3">
<path style="stroke:none;" d="M -8.421875 -2.203125 L -6.5625 -2.203125 L -6.5625 -4.421875 L -5.71875 -4.421875 L -5.71875 -2.203125 L -2.15625 -2.203125 C -1.625 -2.203125 -1.28125 -2.273438 -1.125 -2.421875 C -0.976562 -2.566406 -0.90625 -2.863281 -0.90625 -3.3125 L -0.90625 -4.421875 L 0 -4.421875 L 0 -3.3125 C 0 -2.476562 -0.15625 -1.898438 -0.46875 -1.578125 C -0.78125 -1.265625 -1.34375 -1.109375 -2.15625 -1.109375 L -5.71875 -1.109375 L -5.71875 -0.328125 L -6.5625 -0.328125 L -6.5625 -1.109375 L -8.421875 -1.109375 Z M -8.421875 -2.203125 "/>
</symbol>
<symbol overflow="visible" id="s3rGQ49010-0">
<path style="stroke:none;" d="M 0.59375 2.125 L 0.59375 -8.46875 L 6.59375 -8.46875 L 6.59375 2.125 Z M 1.265625 1.453125 L 5.9375 1.453125 L 5.9375 -7.78125 L 1.265625 -7.78125 Z M 1.265625 1.453125 "/>
</symbol>
<symbol overflow="visible" id="s3rGQ49010-1">
<path style="stroke:none;" d="M 1.484375 -1 L 3.421875 -1 L 3.421875 -7.671875 L 1.3125 -7.25 L 1.3125 -8.328125 L 3.40625 -8.75 L 4.59375 -8.75 L 4.59375 -1 L 6.53125 -1 L 6.53125 0 L 1.484375 0 Z M 1.484375 -1 "/>
</symbol>
<symbol overflow="visible" id="s3rGQ49011-0">
<path style="stroke:none;" d="M 0.59375 2.125 L 0.59375 -8.46875 L 6.59375 -8.46875 L 6.59375 2.125 Z M 1.265625 1.453125 L 5.9375 1.453125 L 5.9375 -7.78125 L 1.265625 -7.78125 Z M 1.265625 1.453125 "/>
</symbol>
<symbol overflow="visible" id="s3rGQ49011-1">
<path style="stroke:none;" d="M 3.8125 -7.96875 C 3.207031 -7.96875 2.75 -7.664062 2.4375 -7.0625 C 2.132812 -6.46875 1.984375 -5.566406 1.984375 -4.359375 C 1.984375 -3.160156 2.132812 -2.257812 2.4375 -1.65625 C 2.75 -1.0625 3.207031 -0.765625 3.8125 -0.765625 C 4.425781 -0.765625 4.882812 -1.0625 5.1875 -1.65625 C 5.5 -2.257812 5.65625 -3.160156 5.65625 -4.359375 C 5.65625 -5.566406 5.5 -6.46875 5.1875 -7.0625 C 4.882812 -7.664062 4.425781 -7.96875 3.8125 -7.96875 Z M 3.8125 -8.90625 C 4.789062 -8.90625 5.539062 -8.515625 6.0625 -7.734375 C 6.582031 -6.960938 6.84375 -5.835938 6.84375 -4.359375 C 6.84375 -2.890625 6.582031 -1.765625 6.0625 -0.984375 C 5.539062 -0.210938 4.789062 0.171875 3.8125 0.171875 C 2.832031 0.171875 2.082031 -0.210938 1.5625 -0.984375 C 1.050781 -1.765625 0.796875 -2.890625 0.796875 -4.359375 C 0.796875 -5.835938 1.050781 -6.960938 1.5625 -7.734375 C 2.082031 -8.515625 2.832031 -8.90625 3.8125 -8.90625 Z M 3.8125 -8.90625 "/>
</symbol>
<symbol overflow="visible" id="s3rGQ49012-0">
<path style="stroke:none;" d="M 0.59375 2.125 L 0.59375 -8.46875 L 6.59375 -8.46875 L 6.59375 2.125 Z M 1.265625 1.453125 L 5.9375 1.453125 L 5.9375 -7.78125 L 1.265625 -7.78125 Z M 1.265625 1.453125 "/>
</symbol>
<symbol overflow="visible" id="s3rGQ49012-1">
<path style="stroke:none;" d="M 2.296875 -1 L 6.4375 -1 L 6.4375 0 L 0.875 0 L 0.875 -1 C 1.320312 -1.457031 1.929688 -2.078125 2.703125 -2.859375 C 3.484375 -3.648438 3.972656 -4.160156 4.171875 -4.390625 C 4.554688 -4.804688 4.820312 -5.160156 4.96875 -5.453125 C 5.125 -5.753906 5.203125 -6.046875 5.203125 -6.328125 C 5.203125 -6.796875 5.035156 -7.175781 4.703125 -7.46875 C 4.378906 -7.757812 3.957031 -7.90625 3.4375 -7.90625 C 3.0625 -7.90625 2.664062 -7.84375 2.25 -7.71875 C 1.84375 -7.59375 1.40625 -7.394531 0.9375 -7.125 L 0.9375 -8.328125 C 1.414062 -8.515625 1.859375 -8.65625 2.265625 -8.75 C 2.679688 -8.851562 3.0625 -8.90625 3.40625 -8.90625 C 4.3125 -8.90625 5.035156 -8.675781 5.578125 -8.21875 C 6.117188 -7.769531 6.390625 -7.164062 6.390625 -6.40625 C 6.390625 -6.050781 6.320312 -5.710938 6.1875 -5.390625 C 6.050781 -5.066406 5.804688 -4.6875 5.453125 -4.25 C 5.347656 -4.132812 5.035156 -3.804688 4.515625 -3.265625 C 3.992188 -2.722656 3.253906 -1.96875 2.296875 -1 Z M 2.296875 -1 "/>
</symbol>
<symbol overflow="visible" id="s3rGQ49012-2">
<path style="stroke:none;" d="M 4.875 -4.71875 C 5.4375 -4.59375 5.875 -4.335938 6.1875 -3.953125 C 6.507812 -3.578125 6.671875 -3.109375 6.671875 -2.546875 C 6.671875 -1.679688 6.375 -1.007812 5.78125 -0.53125 C 5.1875 -0.0625 4.34375 0.171875 3.25 0.171875 C 2.882812 0.171875 2.503906 0.132812 2.109375 0.0625 C 1.722656 -0.0078125 1.328125 -0.117188 0.921875 -0.265625 L 0.921875 -1.40625 C 1.242188 -1.21875 1.597656 -1.070312 1.984375 -0.96875 C 2.378906 -0.875 2.789062 -0.828125 3.21875 -0.828125 C 3.957031 -0.828125 4.519531 -0.972656 4.90625 -1.265625 C 5.300781 -1.554688 5.5 -1.984375 5.5 -2.546875 C 5.5 -3.054688 5.316406 -3.457031 4.953125 -3.75 C 4.585938 -4.039062 4.085938 -4.1875 3.453125 -4.1875 L 2.421875 -4.1875 L 2.421875 -5.15625 L 3.5 -5.15625 C 4.070312 -5.15625 4.515625 -5.269531 4.828125 -5.5 C 5.140625 -5.738281 5.296875 -6.078125 5.296875 -6.515625 C 5.296875 -6.960938 5.132812 -7.304688 4.8125 -7.546875 C 4.5 -7.785156 4.046875 -7.90625 3.453125 -7.90625 C 3.117188 -7.90625 2.765625 -7.867188 2.390625 -7.796875 C 2.023438 -7.734375 1.617188 -7.628906 1.171875 -7.484375 L 1.171875 -8.53125 C 1.628906 -8.65625 2.050781 -8.75 2.4375 -8.8125 C 2.832031 -8.875 3.203125 -8.90625 3.546875 -8.90625 C 4.453125 -8.90625 5.164062 -8.703125 5.6875 -8.296875 C 6.207031 -7.890625 6.46875 -7.335938 6.46875 -6.640625 C 6.46875 -6.148438 6.328125 -5.738281 6.046875 -5.40625 C 5.773438 -5.070312 5.382812 -4.84375 4.875 -4.71875 Z M 4.875 -4.71875 "/>
</symbol>
<symbol overflow="visible" id="s3rGQ49013-0">
<path style="stroke:none;" d="M 0.59375 2.125 L 0.59375 -8.46875 L 6.59375 -8.46875 L 6.59375 2.125 Z M 1.265625 1.453125 L 5.9375 1.453125 L 5.9375 -7.78125 L 1.265625 -7.78125 Z M 1.265625 1.453125 "/>
</symbol>
<symbol overflow="visible" id="s3rGQ49013-1">
<path style="stroke:none;" d="M 3.8125 -7.96875 C 3.207031 -7.96875 2.75 -7.664062 2.4375 -7.0625 C 2.132812 -6.46875 1.984375 -5.566406 1.984375 -4.359375 C 1.984375 -3.160156 2.132812 -2.257812 2.4375 -1.65625 C 2.75 -1.0625 3.207031 -0.765625 3.8125 -0.765625 C 4.425781 -0.765625 4.882812 -1.0625 5.1875 -1.65625 C 5.5 -2.257812 5.65625 -3.160156 5.65625 -4.359375 C 5.65625 -5.566406 5.5 -6.46875 5.1875 -7.0625 C 4.882812 -7.664062 4.425781 -7.96875 3.8125 -7.96875 Z M 3.8125 -8.90625 C 4.789062 -8.90625 5.539062 -8.515625 6.0625 -7.734375 C 6.582031 -6.960938 6.84375 -5.835938 6.84375 -4.359375 C 6.84375 -2.890625 6.582031 -1.765625 6.0625 -0.984375 C 5.539062 -0.210938 4.789062 0.171875 3.8125 0.171875 C 2.832031 0.171875 2.082031 -0.210938 1.5625 -0.984375 C 1.050781 -1.765625 0.796875 -2.890625 0.796875 -4.359375 C 0.796875 -5.835938 1.050781 -6.960938 1.5625 -7.734375 C 2.082031 -8.515625 2.832031 -8.90625 3.8125 -8.90625 Z M 3.8125 -8.90625 "/>
</symbol>
<symbol overflow="visible" id="s3rGQ49014-0">
<path style="stroke:none;" d="M 0.59375 2.125 L 0.59375 -8.46875 L 6.59375 -8.46875 L 6.59375 2.125 Z M 1.265625 1.453125 L 5.9375 1.453125 L 5.9375 -7.78125 L 1.265625 -7.78125 Z M 1.265625 1.453125 "/>
</symbol>
<symbol overflow="visible" id="s3rGQ49014-1">
<path style="stroke:none;" d="M 3.8125 -7.96875 C 3.207031 -7.96875 2.75 -7.664062 2.4375 -7.0625 C 2.132812 -6.46875 1.984375 -5.566406 1.984375 -4.359375 C 1.984375 -3.160156 2.132812 -2.257812 2.4375 -1.65625 C 2.75 -1.0625 3.207031 -0.765625 3.8125 -0.765625 C 4.425781 -0.765625 4.882812 -1.0625 5.1875 -1.65625 C 5.5 -2.257812 5.65625 -3.160156 5.65625 -4.359375 C 5.65625 -5.566406 5.5 -6.46875 5.1875 -7.0625 C 4.882812 -7.664062 4.425781 -7.96875 3.8125 -7.96875 Z M 3.8125 -8.90625 C 4.789062 -8.90625 5.539062 -8.515625 6.0625 -7.734375 C 6.582031 -6.960938 6.84375 -5.835938 6.84375 -4.359375 C 6.84375 -2.890625 6.582031 -1.765625 6.0625 -0.984375 C 5.539062 -0.210938 4.789062 0.171875 3.8125 0.171875 C 2.832031 0.171875 2.082031 -0.210938 1.5625 -0.984375 C 1.050781 -1.765625 0.796875 -2.890625 0.796875 -4.359375 C 0.796875 -5.835938 1.050781 -6.960938 1.5625 -7.734375 C 2.082031 -8.515625 2.832031 -8.90625 3.8125 -8.90625 Z M 3.8125 -8.90625 "/>
</symbol>
<symbol overflow="visible" id="s3rGQ49015-0">
<path style="stroke:none;" d="M 0.59375 2.125 L 0.59375 -8.46875 L 6.59375 -8.46875 L 6.59375 2.125 Z M 1.265625 1.453125 L 5.9375 1.453125 L 5.9375 -7.78125 L 1.265625 -7.78125 Z M 1.265625 1.453125 "/>
</symbol>
<symbol overflow="visible" id="s3rGQ49015-1">
<path style="stroke:none;" d="M 1.171875 -8.75 L 6.703125 -8.75 L 6.703125 -7.75 L 2.359375 -7.75 L 2.359375 -5.15625 L 6.53125 -5.15625 L 6.53125 -4.171875 L 2.359375 -4.171875 L 2.359375 -1 L 6.8125 -1 L 6.8125 0 L 1.171875 0 Z M 1.171875 -8.75 "/>
</symbol>
<symbol overflow="visible" id="s3rGQ49015-2">
<path style="stroke:none;" d="M 6.421875 -8.46875 L 6.421875 -7.3125 C 5.972656 -7.519531 5.546875 -7.675781 5.140625 -7.78125 C 4.742188 -7.894531 4.363281 -7.953125 4 -7.953125 C 3.351562 -7.953125 2.851562 -7.828125 2.5 -7.578125 C 2.15625 -7.328125 1.984375 -6.96875 1.984375 -6.5 C 1.984375 -6.113281 2.097656 -5.820312 2.328125 -5.625 C 2.554688 -5.425781 3 -5.269531 3.65625 -5.15625 L 4.359375 -5 C 5.242188 -4.832031 5.894531 -4.535156 6.3125 -4.109375 C 6.738281 -3.691406 6.953125 -3.128906 6.953125 -2.421875 C 6.953125 -1.566406 6.664062 -0.921875 6.09375 -0.484375 C 5.53125 -0.046875 4.695312 0.171875 3.59375 0.171875 C 3.1875 0.171875 2.75 0.125 2.28125 0.03125 C 1.8125 -0.0625 1.328125 -0.203125 0.828125 -0.390625 L 0.828125 -1.609375 C 1.304688 -1.335938 1.773438 -1.132812 2.234375 -1 C 2.703125 -0.863281 3.15625 -0.796875 3.59375 -0.796875 C 4.269531 -0.796875 4.789062 -0.925781 5.15625 -1.1875 C 5.53125 -1.457031 5.71875 -1.835938 5.71875 -2.328125 C 5.71875 -2.753906 5.582031 -3.085938 5.3125 -3.328125 C 5.050781 -3.578125 4.617188 -3.757812 4.015625 -3.875 L 3.296875 -4.015625 C 2.410156 -4.191406 1.769531 -4.46875 1.375 -4.84375 C 0.988281 -5.21875 0.796875 -5.738281 0.796875 -6.40625 C 0.796875 -7.1875 1.066406 -7.796875 1.609375 -8.234375 C 2.148438 -8.679688 2.898438 -8.90625 3.859375 -8.90625 C 4.273438 -8.90625 4.691406 -8.867188 5.109375 -8.796875 C 5.535156 -8.722656 5.972656 -8.613281 6.421875 -8.46875 Z M 6.421875 -8.46875 "/>
</symbol>
<symbol overflow="visible" id="s3rGQ49015-3">
<path style="stroke:none;" d="M 1.171875 -8.75 L 6.203125 -8.75 L 6.203125 -7.75 L 2.359375 -7.75 L 2.359375 -5.171875 L 5.828125 -5.171875 L 5.828125 -4.171875 L 2.359375 -4.171875 L 2.359375 0 L 1.171875 0 Z M 1.171875 -8.75 "/>
</symbol>
<symbol overflow="visible" id="s3rGQ49015-4">
<path style="stroke:none;" d=""/>
</symbol>
<symbol overflow="visible" id="s3rGQ49015-5">
<path style="stroke:none;" d="M 1.125 -6.5625 L 2.203125 -6.5625 L 2.203125 0 L 1.125 0 Z M 1.125 -9.125 L 2.203125 -9.125 L 2.203125 -7.75 L 1.125 -7.75 Z M 1.125 -9.125 "/>
</symbol>
<symbol overflow="visible" id="s3rGQ49015-6">
<path style="stroke:none;" d="M 1.125 -9.125 L 2.203125 -9.125 L 2.203125 0 L 1.125 0 Z M 1.125 -9.125 "/>
</symbol>
<symbol overflow="visible" id="s3rGQ49015-7">
<path style="stroke:none;" d="M 6.59375 -3.96875 L 6.59375 0 L 5.515625 0 L 5.515625 -3.921875 C 5.515625 -4.546875 5.390625 -5.007812 5.140625 -5.3125 C 4.898438 -5.625 4.539062 -5.78125 4.0625 -5.78125 C 3.476562 -5.78125 3.015625 -5.59375 2.671875 -5.21875 C 2.335938 -4.851562 2.171875 -4.347656 2.171875 -3.703125 L 2.171875 0 L 1.09375 0 L 1.09375 -6.5625 L 2.171875 -6.5625 L 2.171875 -5.546875 C 2.429688 -5.941406 2.734375 -6.234375 3.078125 -6.421875 C 3.429688 -6.617188 3.835938 -6.71875 4.296875 -6.71875 C 5.046875 -6.71875 5.613281 -6.484375 6 -6.015625 C 6.394531 -5.554688 6.59375 -4.875 6.59375 -3.96875 Z M 6.59375 -3.96875 "/>
</symbol>
<symbol overflow="visible" id="s3rGQ49015-8">
<path style="stroke:none;" d="M 5.84375 -3.28125 C 5.84375 -4.070312 5.675781 -4.691406 5.34375 -5.140625 C 5.019531 -5.585938 4.578125 -5.8125 4.015625 -5.8125 C 3.441406 -5.8125 2.988281 -5.585938 2.65625 -5.140625 C 2.332031 -4.691406 2.171875 -4.070312 2.171875 -3.28125 C 2.171875 -2.488281 2.332031 -1.863281 2.65625 -1.40625 C 2.988281 -0.957031 3.441406 -0.734375 4.015625 -0.734375 C 4.578125 -0.734375 5.019531 -0.957031 5.34375 -1.40625 C 5.675781 -1.863281 5.84375 -2.488281 5.84375 -3.28125 Z M 2.171875 -5.5625 C 2.398438 -5.957031 2.6875 -6.25 3.03125 -6.4375 C 3.375 -6.625 3.785156 -6.71875 4.265625 -6.71875 C 5.066406 -6.71875 5.71875 -6.398438 6.21875 -5.765625 C 6.71875 -5.140625 6.96875 -4.3125 6.96875 -3.28125 C 6.96875 -2.25 6.71875 -1.414062 6.21875 -0.78125 C 5.71875 -0.144531 5.066406 0.171875 4.265625 0.171875 C 3.785156 0.171875 3.375 0.078125 3.03125 -0.109375 C 2.6875 -0.304688 2.398438 -0.597656 2.171875 -0.984375 L 2.171875 0 L 1.09375 0 L 1.09375 -9.125 L 2.171875 -9.125 Z M 2.171875 -5.5625 "/>
</symbol>
<symbol overflow="visible" id="s3rGQ49015-9">
<path style="stroke:none;" d="M 3.859375 0.609375 C 3.554688 1.390625 3.257812 1.898438 2.96875 2.140625 C 2.675781 2.378906 2.289062 2.5 1.8125 2.5 L 0.953125 2.5 L 0.953125 1.59375 L 1.578125 1.59375 C 1.878906 1.59375 2.109375 1.519531 2.265625 1.375 C 2.429688 1.238281 2.613281 0.910156 2.8125 0.390625 L 3.015625 -0.109375 L 0.359375 -6.5625 L 1.5 -6.5625 L 3.546875 -1.4375 L 5.609375 -6.5625 L 6.75 -6.5625 Z M 3.859375 0.609375 "/>
</symbol>
<symbol overflow="visible" id="s3rGQ49015-10">
<path style="stroke:none;" d="M 4.9375 -5.5625 C 4.8125 -5.625 4.675781 -5.671875 4.53125 -5.703125 C 4.394531 -5.742188 4.238281 -5.765625 4.0625 -5.765625 C 3.457031 -5.765625 2.988281 -5.566406 2.65625 -5.171875 C 2.332031 -4.773438 2.171875 -4.203125 2.171875 -3.453125 L 2.171875 0 L 1.09375 0 L 1.09375 -6.5625 L 2.171875 -6.5625 L 2.171875 -5.546875 C 2.398438 -5.941406 2.695312 -6.234375 3.0625 -6.421875 C 3.425781 -6.617188 3.867188 -6.71875 4.390625 -6.71875 C 4.460938 -6.71875 4.539062 -6.710938 4.625 -6.703125 C 4.71875 -6.691406 4.816406 -6.675781 4.921875 -6.65625 Z M 4.9375 -5.5625 "/>
</symbol>
<symbol overflow="visible" id="s3rGQ49015-11">
<path style="stroke:none;" d="M 3.671875 -5.8125 C 3.097656 -5.8125 2.640625 -5.582031 2.296875 -5.125 C 1.960938 -4.675781 1.796875 -4.0625 1.796875 -3.28125 C 1.796875 -2.488281 1.960938 -1.867188 2.296875 -1.421875 C 2.628906 -0.972656 3.085938 -0.75 3.671875 -0.75 C 4.242188 -0.75 4.695312 -0.972656 5.03125 -1.421875 C 5.375 -1.878906 5.546875 -2.5 5.546875 -3.28125 C 5.546875 -4.050781 5.375 -4.664062 5.03125 -5.125 C 4.695312 -5.582031 4.242188 -5.8125 3.671875 -5.8125 Z M 3.671875 -6.71875 C 4.609375 -6.71875 5.34375 -6.410156 5.875 -5.796875 C 6.414062 -5.191406 6.6875 -4.351562 6.6875 -3.28125 C 6.6875 -2.207031 6.414062 -1.363281 5.875 -0.75 C 5.34375 -0.132812 4.609375 0.171875 3.671875 0.171875 C 2.734375 0.171875 1.992188 -0.132812 1.453125 -0.75 C 0.921875 -1.363281 0.65625 -2.207031 0.65625 -3.28125 C 0.65625 -4.351562 0.921875 -5.191406 1.453125 -5.796875 C 1.992188 -6.410156 2.734375 -6.71875 3.671875 -6.71875 Z M 3.671875 -6.71875 "/>
</symbol>
<symbol overflow="visible" id="s3rGQ49015-12">
<path style="stroke:none;" d="M 1.015625 -2.59375 L 1.015625 -6.5625 L 2.09375 -6.5625 L 2.09375 -2.625 C 2.09375 -2.007812 2.210938 -1.546875 2.453125 -1.234375 C 2.703125 -0.921875 3.066406 -0.765625 3.546875 -0.765625 C 4.128906 -0.765625 4.585938 -0.945312 4.921875 -1.3125 C 5.265625 -1.6875 5.4375 -2.195312 5.4375 -2.84375 L 5.4375 -6.5625 L 6.515625 -6.5625 L 6.515625 0 L 5.4375 0 L 5.4375 -1.015625 C 5.175781 -0.609375 4.875 -0.304688 4.53125 -0.109375 C 4.1875 0.078125 3.785156 0.171875 3.328125 0.171875 C 2.566406 0.171875 1.988281 -0.0625 1.59375 -0.53125 C 1.207031 -1 1.015625 -1.6875 1.015625 -2.59375 Z M 3.734375 -6.71875 Z M 3.734375 -6.71875 "/>
</symbol>
<symbol overflow="visible" id="s3rGQ49016-0">
<path style="stroke:none;" d="M 0.59375 2.125 L 0.59375 -8.46875 L 6.59375 -8.46875 L 6.59375 2.125 Z M 1.265625 1.453125 L 5.9375 1.453125 L 5.9375 -7.78125 L 1.265625 -7.78125 Z M 1.265625 1.453125 "/>
</symbol>
<symbol overflow="visible" id="s3rGQ49016-1">
<path style="stroke:none;" d="M 1.171875 -8.75 L 6.703125 -8.75 L 6.703125 -7.75 L 2.359375 -7.75 L 2.359375 -5.15625 L 6.53125 -5.15625 L 6.53125 -4.171875 L 2.359375 -4.171875 L 2.359375 -1 L 6.8125 -1 L 6.8125 0 L 1.171875 0 Z M 1.171875 -8.75 "/>
</symbol>
<symbol overflow="visible" id="s3rGQ49017-0">
<path style="stroke:none;" d="M 0.59375 2.125 L 0.59375 -8.46875 L 6.59375 -8.46875 L 6.59375 2.125 Z M 1.265625 1.453125 L 5.9375 1.453125 L 5.9375 -7.78125 L 1.265625 -7.78125 Z M 1.265625 1.453125 "/>
</symbol>
<symbol overflow="visible" id="s3rGQ49017-1">
<path style="stroke:none;" d="M 1.125 -6.5625 L 2.203125 -6.5625 L 2.203125 0 L 1.125 0 Z M 1.125 -9.125 L 2.203125 -9.125 L 2.203125 -7.75 L 1.125 -7.75 Z M 1.125 -9.125 "/>
</symbol>
<symbol overflow="visible" id="s3rGQ49017-2">
<path style="stroke:none;" d="M 5.453125 -3.359375 C 5.453125 -4.140625 5.289062 -4.742188 4.96875 -5.171875 C 4.644531 -5.597656 4.191406 -5.8125 3.609375 -5.8125 C 3.035156 -5.8125 2.585938 -5.597656 2.265625 -5.171875 C 1.941406 -4.742188 1.78125 -4.140625 1.78125 -3.359375 C 1.78125 -2.578125 1.941406 -1.972656 2.265625 -1.546875 C 2.585938 -1.117188 3.035156 -0.90625 3.609375 -0.90625 C 4.191406 -0.90625 4.644531 -1.117188 4.96875 -1.546875 C 5.289062 -1.972656 5.453125 -2.578125 5.453125 -3.359375 Z M 6.53125 -0.8125 C 6.53125 0.300781 6.28125 1.128906 5.78125 1.671875 C 5.289062 2.222656 4.53125 2.5 3.5 2.5 C 3.125 2.5 2.765625 2.46875 2.421875 2.40625 C 2.085938 2.351562 1.765625 2.269531 1.453125 2.15625 L 1.453125 1.109375 C 1.765625 1.273438 2.078125 1.398438 2.390625 1.484375 C 2.703125 1.566406 3.015625 1.609375 3.328125 1.609375 C 4.035156 1.609375 4.566406 1.421875 4.921875 1.046875 C 5.273438 0.679688 5.453125 0.125 5.453125 -0.625 L 5.453125 -1.15625 C 5.222656 -0.769531 4.9375 -0.476562 4.59375 -0.28125 C 4.25 -0.09375 3.832031 0 3.34375 0 C 2.539062 0 1.890625 -0.304688 1.390625 -0.921875 C 0.898438 -1.535156 0.65625 -2.347656 0.65625 -3.359375 C 0.65625 -4.367188 0.898438 -5.179688 1.390625 -5.796875 C 1.890625 -6.410156 2.539062 -6.71875 3.34375 -6.71875 C 3.832031 -6.71875 4.25 -6.617188 4.59375 -6.421875 C 4.9375 -6.234375 5.222656 -5.945312 5.453125 -5.5625 L 5.453125 -6.5625 L 6.53125 -6.5625 Z M 6.53125 -0.8125 "/>
</symbol>
<symbol overflow="visible" id="s3rGQ49017-3">
<path style="stroke:none;" d="M 5.3125 -6.375 L 5.3125 -5.34375 C 5.007812 -5.5 4.691406 -5.613281 4.359375 -5.6875 C 4.035156 -5.769531 3.695312 -5.8125 3.34375 -5.8125 C 2.8125 -5.8125 2.410156 -5.726562 2.140625 -5.5625 C 1.867188 -5.40625 1.734375 -5.160156 1.734375 -4.828125 C 1.734375 -4.578125 1.828125 -4.378906 2.015625 -4.234375 C 2.210938 -4.097656 2.601562 -3.96875 3.1875 -3.84375 L 3.546875 -3.75 C 4.316406 -3.59375 4.863281 -3.363281 5.1875 -3.0625 C 5.507812 -2.757812 5.671875 -2.34375 5.671875 -1.8125 C 5.671875 -1.195312 5.425781 -0.710938 4.9375 -0.359375 C 4.457031 -0.00390625 3.796875 0.171875 2.953125 0.171875 C 2.597656 0.171875 2.226562 0.132812 1.84375 0.0625 C 1.46875 0 1.070312 -0.0976562 0.65625 -0.234375 L 0.65625 -1.359375 C 1.050781 -1.148438 1.441406 -0.992188 1.828125 -0.890625 C 2.210938 -0.785156 2.597656 -0.734375 2.984375 -0.734375 C 3.484375 -0.734375 3.867188 -0.816406 4.140625 -0.984375 C 4.421875 -1.160156 4.5625 -1.410156 4.5625 -1.734375 C 4.5625 -2.023438 4.460938 -2.25 4.265625 -2.40625 C 4.066406 -2.5625 3.632812 -2.710938 2.96875 -2.859375 L 2.59375 -2.9375 C 1.925781 -3.082031 1.441406 -3.300781 1.140625 -3.59375 C 0.847656 -3.882812 0.703125 -4.28125 0.703125 -4.78125 C 0.703125 -5.40625 0.921875 -5.882812 1.359375 -6.21875 C 1.796875 -6.550781 2.414062 -6.71875 3.21875 -6.71875 C 3.613281 -6.71875 3.988281 -6.6875 4.34375 -6.625 C 4.695312 -6.570312 5.019531 -6.488281 5.3125 -6.375 Z M 5.3125 -6.375 "/>
</symbol>
<symbol overflow="visible" id="s3rGQ49017-4">
<path style="stroke:none;" d="M 4.9375 -5.5625 C 4.8125 -5.625 4.675781 -5.671875 4.53125 -5.703125 C 4.394531 -5.742188 4.238281 -5.765625 4.0625 -5.765625 C 3.457031 -5.765625 2.988281 -5.566406 2.65625 -5.171875 C 2.332031 -4.773438 2.171875 -4.203125 2.171875 -3.453125 L 2.171875 0 L 1.09375 0 L 1.09375 -6.5625 L 2.171875 -6.5625 L 2.171875 -5.546875 C 2.398438 -5.941406 2.695312 -6.234375 3.0625 -6.421875 C 3.425781 -6.617188 3.867188 -6.71875 4.390625 -6.71875 C 4.460938 -6.71875 4.539062 -6.710938 4.625 -6.703125 C 4.71875 -6.691406 4.816406 -6.675781 4.921875 -6.65625 Z M 4.9375 -5.5625 "/>
</symbol>
<symbol overflow="visible" id="s3rGQ49017-5">
<path style="stroke:none;" d=""/>
</symbol>
<symbol overflow="visible" id="s3rGQ49018-0">
<path style="stroke:none;" d="M 0.59375 2.125 L 0.59375 -8.46875 L 6.59375 -8.46875 L 6.59375 2.125 Z M 1.265625 1.453125 L 5.9375 1.453125 L 5.9375 -7.78125 L 1.265625 -7.78125 Z M 1.265625 1.453125 "/>
</symbol>
<symbol overflow="visible" id="s3rGQ49018-1">
<path style="stroke:none;" d=""/>
</symbol>
<symbol overflow="visible" id="s3rGQ49018-2">
<path style="stroke:none;" d="M 3.671875 -5.8125 C 3.097656 -5.8125 2.640625 -5.582031 2.296875 -5.125 C 1.960938 -4.675781 1.796875 -4.0625 1.796875 -3.28125 C 1.796875 -2.488281 1.960938 -1.867188 2.296875 -1.421875 C 2.628906 -0.972656 3.085938 -0.75 3.671875 -0.75 C 4.242188 -0.75 4.695312 -0.972656 5.03125 -1.421875 C 5.375 -1.878906 5.546875 -2.5 5.546875 -3.28125 C 5.546875 -4.050781 5.375 -4.664062 5.03125 -5.125 C 4.695312 -5.582031 4.242188 -5.8125 3.671875 -5.8125 Z M 3.671875 -6.71875 C 4.609375 -6.71875 5.34375 -6.410156 5.875 -5.796875 C 6.414062 -5.191406 6.6875 -4.351562 6.6875 -3.28125 C 6.6875 -2.207031 6.414062 -1.363281 5.875 -0.75 C 5.34375 -0.132812 4.609375 0.171875 3.671875 0.171875 C 2.734375 0.171875 1.992188 -0.132812 1.453125 -0.75 C 0.921875 -1.363281 0.65625 -2.207031 0.65625 -3.28125 C 0.65625 -4.351562 0.921875 -5.191406 1.453125 -5.796875 C 1.992188 -6.410156 2.734375 -6.71875 3.671875 -6.71875 Z M 3.671875 -6.71875 "/>
</symbol>
<symbol overflow="visible" id="s3rGQ49018-3">
<path style="stroke:none;" d="M 7.734375 -8.078125 L 7.734375 -6.828125 C 7.328125 -7.203125 6.898438 -7.476562 6.453125 -7.65625 C 6.003906 -7.84375 5.523438 -7.9375 5.015625 -7.9375 C 4.015625 -7.9375 3.25 -7.628906 2.71875 -7.015625 C 2.1875 -6.398438 1.921875 -5.515625 1.921875 -4.359375 C 1.921875 -3.210938 2.1875 -2.332031 2.71875 -1.71875 C 3.25 -1.101562 4.015625 -0.796875 5.015625 -0.796875 C 5.523438 -0.796875 6.003906 -0.890625 6.453125 -1.078125 C 6.898438 -1.265625 7.328125 -1.539062 7.734375 -1.90625 L 7.734375 -0.671875 C 7.316406 -0.390625 6.875 -0.175781 6.40625 -0.03125 C 5.945312 0.101562 5.460938 0.171875 4.953125 0.171875 C 3.617188 0.171875 2.570312 -0.234375 1.8125 -1.046875 C 1.050781 -1.859375 0.671875 -2.960938 0.671875 -4.359375 C 0.671875 -5.765625 1.050781 -6.875 1.8125 -7.6875 C 2.570312 -8.5 3.617188 -8.90625 4.953125 -8.90625 C 5.472656 -8.90625 5.960938 -8.832031 6.421875 -8.6875 C 6.890625 -8.550781 7.328125 -8.347656 7.734375 -8.078125 Z M 7.734375 -8.078125 "/>
</symbol>
<symbol overflow="visible" id="s3rGQ49018-4">
<path style="stroke:none;" d="M 2.203125 -8.421875 L 2.203125 -6.5625 L 4.421875 -6.5625 L 4.421875 -5.71875 L 2.203125 -5.71875 L 2.203125 -2.15625 C 2.203125 -1.625 2.273438 -1.28125 2.421875 -1.125 C 2.566406 -0.976562 2.863281 -0.90625 3.3125 -0.90625 L 4.421875 -0.90625 L 4.421875 0 L 3.3125 0 C 2.476562 0 1.898438 -0.15625 1.578125 -0.46875 C 1.265625 -0.78125 1.109375 -1.34375 1.109375 -2.15625 L 1.109375 -5.71875 L 0.328125 -5.71875 L 0.328125 -6.5625 L 1.109375 -6.5625 L 1.109375 -8.421875 Z M 2.203125 -8.421875 "/>
</symbol>
</g>
</defs>
<g id="surface1">
<path style=" stroke:none;fill-rule:nonzero;fill:rgb(100%,100%,100%);fill-opacity:1;" d="M 0 0 L 445.5 0 L 445.5 264.75 L 0 264.75 Z M 0 0 "/>
<path style=" stroke:none;fill-rule:nonzero;fill:rgb(100%,100%,100%);fill-opacity:1;" d="M 58.5 216.75 L 433.5 216.75 L 433.5 29.25 L 58.5 29.25 Z M 58.5 216.75 "/>
<path style="fill:none;stroke-width:1;stroke-linecap:butt;stroke-linejoin:miter;stroke:rgb(0%,0%,0%);stroke-opacity:0.12;stroke-miterlimit:10;" d="M 100.729167 289 L 100.729167 39 " transform="matrix(0.75,0,0,0.75,0,0)"/>
<path style="fill:none;stroke-width:1;stroke-linecap:butt;stroke-linejoin:miter;stroke:rgb(0%,0%,0%);stroke-opacity:0.12;stroke-miterlimit:10;" d="M 282.546875 289 L 282.546875 39 " transform="matrix(0.75,0,0,0.75,0,0)"/>
<path style="fill:none;stroke-width:1;stroke-linecap:butt;stroke-linejoin:miter;stroke:rgb(0%,0%,0%);stroke-opacity:0.12;stroke-miterlimit:10;" d="M 464.364583 289 L 464.364583 39 " transform="matrix(0.75,0,0,0.75,0,0)"/>
<path style="fill:none;stroke-width:1;stroke-linecap:butt;stroke-linejoin:miter;stroke:rgb(0%,0%,0%);stroke-opacity:0.12;stroke-miterlimit:10;" d="M 78 277.635417 L 578 277.635417 " transform="matrix(0.75,0,0,0.75,0,0)"/>
<path style="fill:none;stroke-width:1;stroke-linecap:butt;stroke-linejoin:miter;stroke:rgb(0%,0%,0%);stroke-opacity:0.12;stroke-miterlimit:10;" d="M 78 210.395833 L 578 210.395833 " transform="matrix(0.75,0,0,0.75,0,0)"/>
<path style="fill:none;stroke-width:1;stroke-linecap:butt;stroke-linejoin:miter;stroke:rgb(0%,0%,0%);stroke-opacity:0.12;stroke-miterlimit:10;" d="M 78 143.15625 L 578 143.15625 " transform="matrix(0.75,0,0,0.75,0,0)"/>
<path style="fill:none;stroke-width:1;stroke-linecap:butt;stroke-linejoin:miter;stroke:rgb(0%,0%,0%);stroke-opacity:0.12;stroke-miterlimit:10;" d="M 78 75.916667 L 578 75.916667 " transform="matrix(0.75,0,0,0.75,0,0)"/>
<g style="fill:rgb(0%,0%,0%);fill-opacity:1;">
  <use xlink:href="#s3rGQ4900-1" x="211.128906" y="250.859375"/>
</g>
<g style="fill:rgb(0%,0%,0%);fill-opacity:1;">
  <use xlink:href="#s3rGQ4900-2" x="218.710938" y="250.859375"/>
</g>
<g style="fill:rgb(0%,0%,0%);fill-opacity:1;">
  <use xlink:href="#s3rGQ4901-1" x="223.644531" y="250.859375"/>
</g>
<g style="fill:rgb(0%,0%,0%);fill-opacity:1;">
  <use xlink:href="#s3rGQ4902-1" x="228.578125" y="250.859375"/>
</g>
<g style="fill:rgb(0%,0%,0%);fill-opacity:1;">
  <use xlink:href="#s3rGQ4902-2" x="235.917969" y="250.859375"/>
</g>
<g style="fill:rgb(0%,0%,0%);fill-opacity:1;">
  <use xlink:href="#s3rGQ4902-3" x="240.851562" y="250.859375"/>
</g>
<g style="fill:rgb(0%,0%,0%);fill-opacity:1;">
  <use xlink:href="#s3rGQ4901-2" x="244.667969" y="250.859375"/>
</g>
<g style="fill:rgb(0%,0%,0%);fill-opacity:1;">
  <use xlink:href="#s3rGQ4900-3" x="253.046875" y="250.859375"/>
</g>
<g style="fill:rgb(0%,0%,0%);fill-opacity:1;">
  <use xlink:href="#s3rGQ4900-4" x="260.386719" y="250.859375"/>
</g>
<g style="fill:rgb(0%,0%,0%);fill-opacity:1;">
  <use xlink:href="#s3rGQ4901-3" x="267.992188" y="250.859375"/>
</g>
<g style="fill:rgb(0%,0%,0%);fill-opacity:1;">
  <use xlink:href="#s3rGQ4902-4" x="275.597656" y="250.859375"/>
</g>
<g style="fill:rgb(0%,0%,0%);fill-opacity:1;">
  <use xlink:href="#s3rGQ4903-1" x="72.125" y="234.640625"/>
</g>
<g style="fill:rgb(0%,0%,0%);fill-opacity:1;">
  <use xlink:href="#s3rGQ4903-2" x="200.8125" y="234.640625"/>
</g>
<g style="fill:rgb(0%,0%,0%);fill-opacity:1;">
  <use xlink:href="#s3rGQ4903-1" x="208.445312" y="234.640625"/>
</g>
<g style="fill:rgb(0%,0%,0%);fill-opacity:1;">
  <use xlink:href="#s3rGQ4903-1" x="216.082031" y="234.640625"/>
</g>
<g style="fill:rgb(0%,0%,0%);fill-opacity:1;">
  <use xlink:href="#s3rGQ4904-1" x="337.320312" y="234.640625"/>
</g>
<g style="fill:rgb(0%,0%,0%);fill-opacity:1;">
  <use xlink:href="#s3rGQ4903-1" x="344.957031" y="234.640625"/>
</g>
<g style="fill:rgb(0%,0%,0%);fill-opacity:1;">
  <use xlink:href="#s3rGQ4905-1" x="352.589844" y="234.640625"/>
</g>
<g style="fill:rgb(0%,0%,0%);fill-opacity:1;">
  <use xlink:href="#s3rGQ4906-1" x="22.441406" y="159.074219"/>
</g>
<g style="fill:rgb(0%,0%,0%);fill-opacity:1;">
  <use xlink:href="#s3rGQ4907-1" x="22.441406" y="152.171875"/>
</g>
<g style="fill:rgb(0%,0%,0%);fill-opacity:1;">
  <use xlink:href="#s3rGQ4907-2" x="22.441406" y="148.835938"/>
</g>
<g style="fill:rgb(0%,0%,0%);fill-opacity:1;">
  <use xlink:href="#s3rGQ4908-1" x="22.441406" y="145.503906"/>
</g>
<g style="fill:rgb(0%,0%,0%);fill-opacity:1;">
  <use xlink:href="#s3rGQ4906-2" x="22.441406" y="142.167969"/>
</g>
<g style="fill:rgb(0%,0%,0%);fill-opacity:1;">
  <use xlink:href="#s3rGQ4906-3" x="22.441406" y="134.5625"/>
</g>
<g style="fill:rgb(0%,0%,0%);fill-opacity:1;">
  <use xlink:href="#s3rGQ4908-2" x="22.441406" y="126.945312"/>
</g>
<g style="fill:rgb(0%,0%,0%);fill-opacity:1;">
  <use xlink:href="#s3rGQ4908-3" x="22.441406" y="123.132812"/>
</g>
<g style="fill:rgb(0%,0%,0%);fill-opacity:1;">
  <use xlink:href="#s3rGQ4906-4" x="22.441406" y="114.753906"/>
</g>
<g style="fill:rgb(0%,0%,0%);fill-opacity:1;">
  <use xlink:href="#s3rGQ4909-1" x="22.441406" y="107.410156"/>
</g>
<g style="fill:rgb(0%,0%,0%);fill-opacity:1;">
  <use xlink:href="#s3rGQ4909-2" x="22.441406" y="99.804688"/>
</g>
<g style="fill:rgb(0%,0%,0%);fill-opacity:1;">
  <use xlink:href="#s3rGQ4909-3" x="22.441406" y="92.199219"/>
</g>
<g style="fill:rgb(0%,0%,0%);fill-opacity:1;">
  <use xlink:href="#s3rGQ4903-1" x="44.203125" y="212.382812"/>
</g>
<g style="fill:rgb(0%,0%,0%);fill-opacity:1;">
  <use xlink:href="#s3rGQ49010-1" x="28.933594" y="161.953125"/>
</g>
<g style="fill:rgb(0%,0%,0%);fill-opacity:1;">
  <use xlink:href="#s3rGQ49011-1" x="36.566406" y="161.953125"/>
</g>
<g style="fill:rgb(0%,0%,0%);fill-opacity:1;">
  <use xlink:href="#s3rGQ4903-1" x="44.203125" y="161.953125"/>
</g>
<g style="fill:rgb(0%,0%,0%);fill-opacity:1;">
  <use xlink:href="#s3rGQ49012-1" x="28.933594" y="111.519531"/>
</g>
<g style="fill:rgb(0%,0%,0%);fill-opacity:1;">
  <use xlink:href="#s3rGQ49013-1" x="36.566406" y="111.519531"/>
</g>
<g style="fill:rgb(0%,0%,0%);fill-opacity:1;">
  <use xlink:href="#s3rGQ49014-1" x="44.203125" y="111.519531"/>
</g>
<g style="fill:rgb(0%,0%,0%);fill-opacity:1;">
  <use xlink:href="#s3rGQ49012-2" x="28.933594" y="61.089844"/>
</g>
<g style="fill:rgb(0%,0%,0%);fill-opacity:1;">
  <use xlink:href="#s3rGQ49013-1" x="36.566406" y="61.089844"/>
</g>
<g style="fill:rgb(0%,0%,0%);fill-opacity:1;">
  <use xlink:href="#s3rGQ49014-1" x="44.203125" y="61.089844"/>
</g>
<g style="fill:rgb(0%,0%,0%);fill-opacity:1;">
  <use xlink:href="#s3rGQ49015-1" x="164.015625" y="23.417969"/>
</g>
<g style="fill:rgb(0%,0%,0%);fill-opacity:1;">
  <use xlink:href="#s3rGQ49015-2" x="171.597656" y="23.417969"/>
</g>
<g style="fill:rgb(0%,0%,0%);fill-opacity:1;">
  <use xlink:href="#s3rGQ49016-1" x="179.214844" y="23.417969"/>
</g>
<g style="fill:rgb(0%,0%,0%);fill-opacity:1;">
  <use xlink:href="#s3rGQ49015-3" x="186.796875" y="23.417969"/>
</g>
<g style="fill:rgb(0%,0%,0%);fill-opacity:1;">
  <use xlink:href="#s3rGQ49015-4" x="193.699219" y="23.417969"/>
</g>
<g style="fill:rgb(0%,0%,0%);fill-opacity:1;">
  <use xlink:href="#s3rGQ49015-3" x="197.515625" y="23.417969"/>
</g>
<g style="fill:rgb(0%,0%,0%);fill-opacity:1;">
  <use xlink:href="#s3rGQ49015-5" x="204.414062" y="23.417969"/>
</g>
<g style="fill:rgb(0%,0%,0%);fill-opacity:1;">
  <use xlink:href="#s3rGQ49015-6" x="207.75" y="23.417969"/>
</g>
<g style="fill:rgb(0%,0%,0%);fill-opacity:1;">
  <use xlink:href="#s3rGQ49017-1" x="211.085937" y="23.417969"/>
</g>
<g style="fill:rgb(0%,0%,0%);fill-opacity:1;">
  <use xlink:href="#s3rGQ49015-7" x="214.417969" y="23.417969"/>
</g>
<g style="fill:rgb(0%,0%,0%);fill-opacity:1;">
  <use xlink:href="#s3rGQ49017-2" x="222.023438" y="23.417969"/>
</g>
<g style="fill:rgb(0%,0%,0%);fill-opacity:1;">
  <use xlink:href="#s3rGQ49017-3" x="229.640625" y="23.417969"/>
</g>
<g style="fill:rgb(0%,0%,0%);fill-opacity:1;">
  <use xlink:href="#s3rGQ49015-4" x="235.890625" y="23.417969"/>
</g>
<g style="fill:rgb(0%,0%,0%);fill-opacity:1;">
  <use xlink:href="#s3rGQ49015-8" x="239.707031" y="23.417969"/>
</g>
<g style="fill:rgb(0%,0%,0%);fill-opacity:1;">
  <use xlink:href="#s3rGQ49015-9" x="247.324219" y="23.417969"/>
</g>
<g style="fill:rgb(0%,0%,0%);fill-opacity:1;">
  <use xlink:href="#s3rGQ49018-1" x="254.425781" y="23.417969"/>
</g>
<g style="fill:rgb(0%,0%,0%);fill-opacity:1;">
  <use xlink:href="#s3rGQ49015-1" x="258.242188" y="23.417969"/>
</g>
<g style="fill:rgb(0%,0%,0%);fill-opacity:1;">
  <use xlink:href="#s3rGQ49017-4" x="265.820312" y="23.417969"/>
</g>
<g style="fill:rgb(0%,0%,0%);fill-opacity:1;">
  <use xlink:href="#s3rGQ49015-10" x="270.757812" y="23.417969"/>
</g>
<g style="fill:rgb(0%,0%,0%);fill-opacity:1;">
  <use xlink:href="#s3rGQ49018-2" x="275.6875" y="23.417969"/>
</g>
<g style="fill:rgb(0%,0%,0%);fill-opacity:1;">
  <use xlink:href="#s3rGQ49015-10" x="283.03125" y="23.417969"/>
</g>
<g style="fill:rgb(0%,0%,0%);fill-opacity:1;">
  <use xlink:href="#s3rGQ49017-5" x="287.964844" y="23.417969"/>
</g>
<g style="fill:rgb(0%,0%,0%);fill-opacity:1;">
  <use xlink:href="#s3rGQ49018-3" x="291.777344" y="23.417969"/>
</g>
<g style="fill:rgb(0%,0%,0%);fill-opacity:1;">
  <use xlink:href="#s3rGQ49015-11" x="300.15625" y="23.417969"/>
</g>
<g style="fill:rgb(0%,0%,0%);fill-opacity:1;">
  <use xlink:href="#s3rGQ49015-12" x="307.5" y="23.417969"/>
</g>
<g style="fill:rgb(0%,0%,0%);fill-opacity:1;">
  <use xlink:href="#s3rGQ49015-7" x="315.105469" y="23.417969"/>
</g>
<g style="fill:rgb(0%,0%,0%);fill-opacity:1;">
  <use xlink:href="#s3rGQ49018-4" x="322.710938" y="23.417969"/>
</g>
<path style=" stroke:none;fill-rule:nonzero;fill:rgb(0%,0%,0%);fill-opacity:0.6;" d="M 75.546875 208.226562 L 78.992188 208.226562 L 78.992188 37.773438 L 75.546875 37.773438 Z M 75.546875 208.226562 "/>
<path style=" stroke:none;fill-rule:nonzero;fill:rgb(0%,0%,0%);fill-opacity:0.6;" d="M 78.988281 208.226562 L 82.433594 208.226562 L 82.433594 150.230469 L 78.988281 150.230469 Z M 78.988281 208.226562 "/>
<path style=" stroke:none;fill-rule:nonzero;fill:rgb(0%,0%,0%);fill-opacity:0.6;" d="M 82.433594 208.226562 L 85.878906 208.226562 L 85.878906 167.378906 L 82.433594 167.378906 Z M 82.433594 208.226562 "/>
<path style=" stroke:none;fill-rule:nonzero;fill:rgb(0%,0%,0%);fill-opacity:0.6;" d="M 85.875 208.226562 L 89.320312 208.226562 L 89.320312 177.464844 L 85.875 177.464844 Z M 85.875 208.226562 "/>
<path style=" stroke:none;fill-rule:nonzero;fill:rgb(0%,0%,0%);fill-opacity:0.6;" d="M 89.320312 208.226562 L 92.765625 208.226562 L 92.765625 191.082031 L 89.320312 191.082031 Z M 89.320312 208.226562 "/>
<path style=" stroke:none;fill-rule:nonzero;fill:rgb(0%,0%,0%);fill-opacity:0.6;" d="M 92.761719 208.226562 L 96.207031 208.226562 L 96.207031 202.175781 L 92.761719 202.175781 Z M 92.761719 208.226562 "/>
<path style=" stroke:none;fill-rule:nonzero;fill:rgb(0%,0%,0%);fill-opacity:0.6;" d="M 96.207031 208.226562 L 99.652344 208.226562 L 99.652344 204.695312 L 96.207031 204.695312 Z M 96.207031 208.226562 "/>
<path style=" stroke:none;fill-rule:nonzero;fill:rgb(0%,0%,0%);fill-opacity:0.6;" d="M 99.648438 208.226562 L 103.09375 208.226562 L 103.09375 206.210938 L 99.648438 206.210938 Z M 99.648438 208.226562 "/>
<path style=" stroke:none;fill-rule:nonzero;fill:rgb(0%,0%,0%);fill-opacity:0.6;" d="M 103.09375 208.226562 L 106.539062 208.226562 L 106.539062 207.722656 L 103.09375 207.722656 Z M 103.09375 208.226562 "/>
<path style=" stroke:none;fill-rule:nonzero;fill:rgb(0%,0%,0%);fill-opacity:0.6;" d="M 109.980469 208.226562 L 113.425781 208.226562 L 113.425781 207.722656 L 109.980469 207.722656 Z M 109.980469 208.226562 "/>
<path style=" stroke:none;fill-rule:nonzero;fill:rgb(0%,0%,0%);fill-opacity:0.6;" d="M 289.042969 208.226562 L 292.488281 208.226562 L 292.488281 207.722656 L 289.042969 207.722656 Z M 289.042969 208.226562 "/>
<path style=" stroke:none;fill-rule:nonzero;fill:rgb(0%,0%,0%);fill-opacity:0.6;" d="M 357.914062 208.226562 L 361.359375 208.226562 L 361.359375 207.722656 L 357.914062 207.722656 Z M 357.914062 208.226562 "/>
<path style="fill:none;stroke-width:1;stroke-linecap:butt;stroke-linejoin:miter;stroke:rgb(0%,0%,0%);stroke-opacity:1;stroke-miterlimit:10;" d="M 100.729167 289.5 L 100.729167 295.5 " transform="matrix(0.75,0,0,0.75,0,0)"/>
<path style="fill:none;stroke-width:1;stroke-linecap:butt;stroke-linejoin:miter;stroke:rgb(0%,0%,0%);stroke-opacity:1;stroke-miterlimit:10;" d="M 282.546875 289.5 L 282.546875 295.5 " transform="matrix(0.75,0,0,0.75,0,0)"/>
<path style="fill:none;stroke-width:1;stroke-linecap:butt;stroke-linejoin:miter;stroke:rgb(0%,0%,0%);stroke-opacity:1;stroke-miterlimit:10;" d="M 464.364583 289.5 L 464.364583 295.5 " transform="matrix(0.75,0,0,0.75,0,0)"/>
<path style="fill:none;stroke-width:1;stroke-linecap:butt;stroke-linejoin:miter;stroke:rgb(0%,0%,0%);stroke-opacity:1;stroke-miterlimit:10;" d="M 77.5 277.635417 L 71.5 277.635417 " transform="matrix(0.75,0,0,0.75,0,0)"/>
<path style="fill:none;stroke-width:1;stroke-linecap:butt;stroke-linejoin:miter;stroke:rgb(0%,0%,0%);stroke-opacity:1;stroke-miterlimit:10;" d="M 77.5 210.395833 L 71.5 210.395833 " transform="matrix(0.75,0,0,0.75,0,0)"/>
<path style="fill:none;stroke-width:1;stroke-linecap:butt;stroke-linejoin:miter;stroke:rgb(0%,0%,0%);stroke-opacity:1;stroke-miterlimit:10;" d="M 77.5 143.15625 L 71.5 143.15625 " transform="matrix(0.75,0,0,0.75,0,0)"/>
<path style="fill:none;stroke-width:1;stroke-linecap:butt;stroke-linejoin:miter;stroke:rgb(0%,0%,0%);stroke-opacity:1;stroke-miterlimit:10;" d="M 77.5 75.916667 L 71.5 75.916667 " transform="matrix(0.75,0,0,0.75,0,0)"/>
<path style="fill:none;stroke-width:1;stroke-linecap:butt;stroke-linejoin:miter;stroke:rgb(0%,0%,0%);stroke-opacity:1;stroke-miterlimit:10;" d="M 77.5 289 L 578.5 289 " transform="matrix(0.75,0,0,0.75,0,0)"/>
<path style="fill:none;stroke-width:1;stroke-linecap:butt;stroke-linejoin:miter;stroke:rgb(0%,0%,0%);stroke-opacity:1;stroke-miterlimit:10;" d="M 78 289.5 L 78 38.5 " transform="matrix(0.75,0,0,0.75,0,0)"/>
<path style="fill:none;stroke-width:1;stroke-linecap:butt;stroke-linejoin:miter;stroke:rgb(0%,0%,0%);stroke-opacity:1;stroke-miterlimit:10;" d="M 77.5 39 L 578.5 39 " transform="matrix(0.75,0,0,0.75,0,0)"/>
<path style="fill:none;stroke-width:1;stroke-linecap:butt;stroke-linejoin:miter;stroke:rgb(0%,0%,0%);stroke-opacity:1;stroke-miterlimit:10;" d="M 578 289.5 L 578 38.5 " transform="matrix(0.75,0,0,0.75,0,0)"/>
</g>
</svg>
