<?xml version="1.0" encoding="utf-8"?>
<!DOCTYPE svg PUBLIC "-//W3C//DTD SVG 1.1//EN" "http://www.w3.org/Graphics/SVG/1.1/DTD/svg11.dtd">
<svg xmlns="http://www.w3.org/2000/svg" xmlns:xlink="http://www.w3.org/1999/xlink" version="1.1" class="marks" width="698" height="824" viewBox="0 0 698 824"><rect width="698" height="824" fill="white"/><g fill="none" stroke-miterlimit="10" transform="translate(92,23)"><g class="mark-group role-frame root" role="graphics-object" aria-roledescription="group mark container"><g transform="translate(0,0)"><path class="background" aria-hidden="true" d="M0,0h500v0h-500Z"/><g><g class="mark-group role-scope concat_0_group" role="graphics-object" aria-roledescription="group mark container"><g transform="translate(0,0)"><path class="background" aria-hidden="true" d="M0.5,0.5h500v100h-500Z" stroke="#ddd"/><g><g class="mark-group role-axis" aria-hidden="true"><g transform="translate(0.5,0.5)"><path class="background" aria-hidden="true" d="M0,0h0v0h0Z" pointer-events="none"/><g><g class="mark-rule role-axis-grid" pointer-events="none"><line transform="translate(0,100)" x2="500" y2="0" stroke="#ddd" stroke-width="1" opacity="1"/><line transform="translate(0,58)" x2="500" y2="0" stroke="#ddd" stroke-width="1" opacity="1"/><line transform="translate(0,17)" x2="500" y2="0" stroke="#ddd" stroke-width="1" opacity="1"/></g></g><path class="foreground" aria-hidden="true" d="" pointer-events="none" display="none"/></g></g><g class="mark-group role-axis" role="graphics-symbol" aria-roledescription="axis" aria-label="X-axis titled 'Date' for a discrete scale with 20 values: 2020-12-31, 2021-01-31, 2021-02-28, 2021-03-31, 2021-04-03, ending with 6174-12-31"><g transform="translate(0.5,100.5)"><path class="background" aria-hidden="true" d="M0,0h0v0h0Z" pointer-events="none"/><g><g class="mark-rule role-axis-tick" pointer-events="none"><line transform="translate(12,0)" x2="0" y2="5" stroke="#888" stroke-width="1" opacity="1"/><line transform="translate(37,0)" x2="0" y2="5" stroke="#888" stroke-width="1" opacity="1"/><line transform="translate(62,0)" x2="0" y2="5" stroke="#888" stroke-width="1" opacity="1"/><line transform="translate(87,0)" x2="0" y2="5" stroke="#888" stroke-width="1" opacity="1"/><line transform="translate(112,0)" x2="0" y2="5" stroke="#888" stroke-width="1" opacity="1"/><line transform="translate(137,0)" x2="0" y2="5" stroke="#888" stroke-width="1" opacity="1"/><line transform="translate(162,0)" x2="0" y2="5" stroke="#888" stroke-width="1" opacity="1"/><line transform="translate(187,0)" x2="0" y2="5" stroke="#888" stroke-width="1" opacity="1"/><line transform="translate(212,0)" x2="0" y2="5" stroke="#888" stroke-width="1" opacity="1"/><line transform="translate(237,0)" x2="0" y2="5" stroke="#888" stroke-width="1" opacity="1"/><line transform="translate(262,0)" x2="0" y2="5" stroke="#888" stroke-width="1" opacity="1"/><line transform="translate(287,0)" x2="0" y2="5" stroke="#888" stroke-width="1" opacity="1"/><line transform="translate(312,0)" x2="0" y2="5" stroke="#888" stroke-width="1" opacity="1"/><line transform="translate(337,0)" x2="0" y2="5" stroke="#888" stroke-width="1" opacity="1"/><line transform="translate(362,0)" x2="0" y2="5" stroke="#888" stroke-width="1" opacity="1"/><line transform="translate(387,0)" x2="0" y2="5" stroke="#888" stroke-width="1" opacity="1"/><line transform="translate(412,0)" x2="0" y2="5" stroke="#888" stroke-width="1" opacity="1"/><line transform="translate(437,0)" x2="0" y2="5" stroke="#888" stroke-width="1" opacity="1"/><line transform="translate(462,0)" x2="0" y2="5" stroke="#888" stroke-width="1" opacity="1"/><line transform="translate(487,0)" x2="0" y2="5" stroke="#888" stroke-width="1" opacity="1"/></g><g class="mark-text role-axis-label" pointer-events="none"><text text-anchor="end" transform="translate(12.000000000000028,7) rotate(270) translate(0,3)" font-family="sans-serif" font-size="10px" fill="#000" opacity="1">2020-12-31</text><text text-anchor="end" transform="translate(37.00000000000003,7) rotate(270) translate(0,3)" font-family="sans-serif" font-size="10px" fill="#000" opacity="1">2021-01-31</text><text text-anchor="end" transform="translate(62.00000000000003,7) rotate(270) translate(0,3)" font-family="sans-serif" font-size="10px" fill="#000" opacity="1">2021-02-28</text><text text-anchor="end" transform="translate(87.00000000000003,7) rotate(270) translate(0,3)" font-family="sans-serif" font-size="10px" fill="#000" opacity="1">2021-03-31</text><text text-anchor="end" transform="translate(112.00000000000003,7) rotate(270) translate(0,3)" font-family="sans-serif" font-size="10px" fill="#000" opacity="1">2021-04-03</text><text text-anchor="end" transform="translate(137.00000000000003,7) rotate(270) translate(0,3)" font-family="sans-serif" font-size="10px" fill="#000" opacity="1">2021-04-23</text><text text-anchor="end" transform="translate(162.00000000000003,7) rotate(270) translate(0,3)" font-family="sans-serif" font-size="10px" fill="#000" opacity="1">2021-04-30</text><text text-anchor="end" transform="translate(187.00000000000003,7) rotate(270) translate(0,3)" font-family="sans-serif" font-size="10px" fill="#000" opacity="1">2021-06-14</text><text text-anchor="end" transform="translate(212.00000000000003,7) rotate(270) translate(0,3)" font-family="sans-serif" font-size="10px" fill="#000" opacity="1">2021-06-30</text><text text-anchor="end" transform="translate(237.00000000000003,7) rotate(270) translate(0,3)" font-family="sans-serif" font-size="10px" fill="#000" opacity="1">2021-09-30</text><text text-anchor="end" transform="translate(262,7) rotate(270) translate(0,3)" font-family="sans-serif" font-size="10px" fill="#000" opacity="1">2021-10-31</text><text text-anchor="end" transform="translate(287,7) rotate(270) translate(0,3)" font-family="sans-serif" font-size="10px" fill="#000" opacity="1">2021-11-30</text><text text-anchor="end" transform="translate(312,7) rotate(270) translate(0,3)" font-family="sans-serif" font-size="10px" fill="#000" opacity="1">2021-12-26</text><text text-anchor="end" transform="translate(337,7) rotate(270) translate(0,3)" font-family="sans-serif" font-size="10px" fill="#000" opacity="1">2021-12-31</text><text text-anchor="end" transform="translate(362,7) rotate(270) translate(0,3)" font-family="sans-serif" font-size="10px" fill="#000" opacity="1">2022-01-01</text><text text-anchor="end" transform="translate(387,7) rotate(270) translate(0,3)" font-family="sans-serif" font-size="10px" fill="#000" opacity="1">2022-01-02</text><text text-anchor="end" transform="translate(412,7) rotate(270) translate(0,3)" font-family="sans-serif" font-size="10px" fill="#000" opacity="1">2022-01-29</text><text text-anchor="end" transform="translate(437,7) rotate(270) translate(0,3)" font-family="sans-serif" font-size="10px" fill="#000" opacity="1">2022-12-31</text><text text-anchor="end" transform="translate(462,7) rotate(270) translate(0,3)" font-family="sans-serif" font-size="10px" fill="#000" opacity="1">2058-01-01</text><text text-anchor="end" transform="translate(487,7) rotate(270) translate(0,3)" font-family="sans-serif" font-size="10px" fill="#000" opacity="1">6174-12-31</text></g><g class="mark-rule role-axis-domain" pointer-events="none"><line transform="translate(0,0)" x2="500" y2="0" stroke="#888" stroke-width="1" opacity="1"/></g><g class="mark-text role-axis-title" pointer-events="none"><text text-anchor="middle" transform="translate(250,76)" font-family="sans-serif" font-size="11px" font-weight="bold" fill="#000" opacity="1">Date</text></g></g><path class="foreground" aria-hidden="true" d="" pointer-events="none" display="none"/></g></g><g class="mark-group role-axis" role="graphics-symbol" aria-roledescription="axis" aria-label="Y-axis titled 'Report Count' for a linear scale with values from 0 to 1,200"><g transform="translate(0.5,0.5)"><path class="background" aria-hidden="true" d="M0,0h0v0h0Z" pointer-events="none"/><g><g class="mark-rule role-axis-tick" pointer-events="none"><line transform="translate(0,100)" x2="-5" y2="0" stroke="#888" stroke-width="1" opacity="1"/><line transform="translate(0,58)" x2="-5" y2="0" stroke="#888" stroke-width="1" opacity="1"/><line transform="translate(0,17)" x2="-5" y2="0" stroke="#888" stroke-width="1" opacity="1"/></g><g class="mark-text role-axis-label" pointer-events="none"><text text-anchor="end" transform="translate(-7,103)" font-family="sans-serif" font-size="10px" fill="#000" opacity="1">0</text><text text-anchor="end" transform="translate(-7,61.33333333333333)" font-family="sans-serif" font-size="10px" fill="#000" opacity="1">500</text><text text-anchor="end" transform="translate(-7,19.666666666666664)" font-family="sans-serif" font-size="10px" fill="#000" opacity="1">1,000</text></g><g class="mark-rule role-axis-domain" pointer-events="none"><line transform="translate(0,100)" x2="0" y2="-100" stroke="#888" stroke-width="1" opacity="1"/></g><g class="mark-text role-axis-title" pointer-events="none"><text text-anchor="middle" transform="translate(-38,50) rotate(-90) translate(0,-2)" font-family="sans-serif" font-size="11px" font-weight="bold" fill="#000" opacity="1">Report Count</text></g></g><path class="foreground" aria-hidden="true" d="" pointer-events="none" display="none"/></g></g><g class="mark-rect role-mark concat_0_marks" role="graphics-object" aria-roledescription="rect mark container"><path aria-label="Report Count: 1161; Date: 2021-12-31" role="graphics-symbol" aria-roledescription="bar" d="M326.25,3.2499999999999973h22.5v96.75h-22.5Z" fill="#ffb43b"/><path aria-label="Report Count: 559; Date: 2020-12-31" role="graphics-symbol" aria-roledescription="bar" d="M1.2500000000000284,53.41666666666667h22.5v46.58333333333333h-22.5Z" fill="#ffb43b"/><path aria-label="Report Count: 33; Date: 2021-03-31" role="graphics-symbol" aria-roledescription="bar" d="M76.25000000000003,97.25h22.5v2.75h-22.5Z" fill="#ffb43b"/><path aria-label="Report Count: 19; Date: 2021-09-30" role="graphics-symbol" aria-roledescription="bar" d="M226.25000000000003,98.41666666666666h22.5v1.5833333333333428h-22.5Z" fill="#ffb43b"/><path aria-label="Report Count: 3; Date: 2021-01-31" role="graphics-symbol" aria-roledescription="bar" d="M26.25000000000003,99.75h22.5v0.25h-22.5Z" fill="#ffb43b"/><path aria-label="Report Count: 1; Date: 2021-06-14" role="graphics-symbol" aria-roledescription="bar" d="M176.25000000000003,99.91666666666667h22.5v0.0833333333333286h-22.5Z" fill="#ffb43b"/><path aria-label="Report Count: 4; Date: 2021-02-28" role="graphics-symbol" aria-roledescription="bar" d="M51.25000000000003,99.66666666666667h22.5v0.3333333333333286h-22.5Z" fill="#ffb43b"/><path aria-label="Report Count: 20; Date: 2021-06-30" role="graphics-symbol" aria-roledescription="bar" d="M201.25000000000003,98.33333333333333h22.5v1.6666666666666714h-22.5Z" fill="#ffb43b"/><path aria-label="Report Count: 1; Date: 2022-01-02" role="graphics-symbol" aria-roledescription="bar" d="M376.25,99.91666666666667h22.5v0.0833333333333286h-22.5Z" fill="#ffb43b"/><path aria-label="Report Count: 3; Date: 2021-10-31" role="graphics-symbol" aria-roledescription="bar" d="M251.25000000000003,99.75h22.5v0.25h-22.5Z" fill="#ffb43b"/><path aria-label="Report Count: 3; Date: 2021-04-30" role="graphics-symbol" aria-roledescription="bar" d="M151.25000000000003,99.75h22.5v0.25h-22.5Z" fill="#ffb43b"/><path aria-label="Report Count: 1; Date: 2021-04-23" role="graphics-symbol" aria-roledescription="bar" d="M126.25000000000003,99.91666666666667h22.5v0.0833333333333286h-22.5Z" fill="#ffb43b"/><path aria-label="Report Count: 2; Date: 2022-12-31" role="graphics-symbol" aria-roledescription="bar" d="M426.25,99.83333333333333h22.5v0.1666666666666714h-22.5Z" fill="#ffb43b"/><path aria-label="Report Count: 1; Date: 2022-01-29" role="graphics-symbol" aria-roledescription="bar" d="M401.25,99.91666666666667h22.5v0.0833333333333286h-22.5Z" fill="#ffb43b"/><path aria-label="Report Count: 3; Date: 2021-11-30" role="graphics-symbol" aria-roledescription="bar" d="M276.25,99.75h22.5v0.25h-22.5Z" fill="#ffb43b"/><path aria-label="Report Count: 3; Date: 2022-01-01" role="graphics-symbol" aria-roledescription="bar" d="M351.25,99.75h22.5v0.25h-22.5Z" fill="#ffb43b"/><path aria-label="Report Count: 1; Date: 6174-12-31" role="graphics-symbol" aria-roledescription="bar" d="M476.25,99.91666666666667h22.5v0.0833333333333286h-22.5Z" fill="#ffb43b"/><path aria-label="Report Count: 1; Date: 2021-12-26" role="graphics-symbol" aria-roledescription="bar" d="M301.25,99.91666666666667h22.5v0.0833333333333286h-22.5Z" fill="#ffb43b"/><path aria-label="Report Count: 1; Date: 2058-01-01" role="graphics-symbol" aria-roledescription="bar" d="M451.25,99.91666666666667h22.5v0.0833333333333286h-22.5Z" fill="#ffb43b"/><path aria-label="Report Count: 1; Date: 2021-04-03" role="graphics-symbol" aria-roledescription="bar" d="M101.25000000000003,99.91666666666667h22.5v0.0833333333333286h-22.5Z" fill="#ffb43b"/></g><g class="mark-group role-title"><g transform="translate(250,-17)"><path class="background" aria-hidden="true" d="M0,0h0v0h0Z" pointer-events="none"/><g><g class="mark-text role-title-text" role="graphics-symbol" aria-roledescription="title" aria-label="Title text 'Report Publication by Date'" pointer-events="none"><text text-anchor="middle" transform="translate(0,10)" font-family="sans-serif" font-size="13px" font-weight="bold" fill="#000" opacity="1">Report Publication by Date</text></g></g><path class="foreground" aria-hidden="true" d="" pointer-events="none" display="none"/></g></g></g><path class="foreground" aria-hidden="true" d="" display="none"/></g></g><g class="mark-group role-scope concat_1_group" role="graphics-object" aria-roledescription="group mark container"><g transform="translate(0,217)"><path class="background" aria-hidden="true" d="M0.5,0.5h500v500h-500Z" stroke="#ddd"/><g><g class="mark-rect role-mark concat_1_marks" role="graphics-object" aria-roledescription="rect mark container"><path aria-label="country: Poland; Date: 2021-12-31; Report Count: 69" role="graphics-symbol" aria-roledescription="rect mark" d="M325,375h25v20.833333333333332h-25Z" fill="rgb(255, 220, 99)"/><path aria-label="country: France; Date: 2020-12-31; Report Count: 52" role="graphics-symbol" aria-roledescription="rect mark" d="M0,166.66666666666666h25v20.833333333333332h-25Z" fill="rgb(255, 225, 104)"/><path aria-label="country: United Kingdom; Date: 2021-12-31; Report Count: 166" role="graphics-symbol" aria-roledescription="rect mark" d="M325,479.16666666666663h25v20.833333333333332h-25Z" fill="rgb(255, 195, 74)"/><path aria-label="country: Germany; Date: 2020-12-31; Report Count: 192" role="graphics-symbol" aria-roledescription="rect mark" d="M0,187.5h25v20.833333333333332h-25Z" fill="rgb(255, 188, 68)"/><path aria-label="country: France; Date: 2021-12-31; Report Count: 100" role="graphics-symbol" aria-roledescription="rect mark" d="M325,166.66666666666666h25v20.833333333333332h-25Z" fill="rgb(255, 212, 91)"/><path aria-label="country: Netherlands; Date: 2021-12-31; Report Count: 89" role="graphics-symbol" aria-roledescription="rect mark" d="M325,333.3333333333333h25v20.833333333333332h-25Z" fill="rgb(255, 215, 94)"/><path aria-label="country: France; Date: 2021-03-31; Report Count: 2" role="graphics-symbol" aria-roledescription="rect mark" d="M75,166.66666666666666h25v20.833333333333332h-25Z" fill="rgb(255, 238, 117)"/><path aria-label="country: Spain; Date: 2020-12-31; Report Count: 30" role="graphics-symbol" aria-roledescription="rect mark" d="M0,437.5h25v20.833333333333332h-25Z" fill="rgb(255, 231, 109)"/><path aria-label="country: Germany; Date: 2021-09-30; Report Count: 3" role="graphics-symbol" aria-roledescription="rect mark" d="M225,187.5h25v20.833333333333332h-25Z" fill="rgb(255, 238, 116)"/><path aria-label="country: Spain; Date: 2021-12-31; Report Count: 67" role="graphics-symbol" aria-roledescription="rect mark" d="M325,437.5h25v20.833333333333332h-25Z" fill="rgb(255, 221, 100)"/><path aria-label="country: Belgium; Date: 2021-12-31; Report Count: 56" role="graphics-symbol" aria-roledescription="rect mark" d="M325,41.666666666666664h25v20.833333333333332h-25Z" fill="rgb(255, 224, 103)"/><path aria-label="country: Czechia; Date: 2020-12-31; Report Count: 28" role="graphics-symbol" aria-roledescription="rect mark" d="M0,83.33333333333333h25v20.833333333333332h-25Z" fill="rgb(255, 231, 110)"/><path aria-label="country: Netherlands; Date: 2020-12-31; Report Count: 12" role="graphics-symbol" aria-roledescription="rect mark" d="M0,333.3333333333333h25v20.833333333333332h-25Z" fill="rgb(255, 235, 114)"/><path aria-label="country: Finland; Date: 2020-12-31; Report Count: 36" role="graphics-symbol" aria-roledescription="rect mark" d="M0,145.83333333333331h25v20.833333333333332h-25Z" fill="rgb(255, 229, 108)"/><path aria-label="country: Austria; Date: 2020-12-31; Report Count: 48" role="graphics-symbol" aria-roledescription="rect mark" d="M0,20.833333333333332h25v20.833333333333332h-25Z" fill="rgb(255, 226, 105)"/><path aria-label="country: Poland; Date: 2020-12-31; Report Count: 86" role="graphics-symbol" aria-roledescription="rect mark" d="M0,375h25v20.833333333333332h-25Z" fill="rgb(255, 216, 95)"/><path aria-label="country: United Kingdom; Date: 2021-03-31; Report Count: 2" role="graphics-symbol" aria-roledescription="rect mark" d="M75,479.16666666666663h25v20.833333333333332h-25Z" fill="rgb(255, 238, 117)"/><path aria-label="country: Denmark; Date: 2021-12-31; Report Count: 35" role="graphics-symbol" aria-roledescription="rect mark" d="M325,104.16666666666666h25v20.833333333333332h-25Z" fill="rgb(255, 229, 108)"/><path aria-label="country: Luxembourg; Date: 2021-12-31; Report Count: 28" role="graphics-symbol" aria-roledescription="rect mark" d="M325,312.5h25v20.833333333333332h-25Z" fill="rgb(255, 231, 110)"/><path aria-label="country: Denmark; Date: 2021-03-31; Report Count: 13" role="graphics-symbol" aria-roledescription="rect mark" d="M75,104.16666666666666h25v20.833333333333332h-25Z" fill="rgb(255, 235, 114)"/><path aria-label="country: Sweden; Date: 2021-12-31; Report Count: 224" role="graphics-symbol" aria-roledescription="rect mark" d="M325,458.3333333333333h25v20.833333333333332h-25Z" fill="rgb(255, 180, 59)"/><path aria-label="country: United Kingdom; Date: 2020-12-31; Report Count: 28" role="graphics-symbol" aria-roledescription="rect mark" d="M0,479.16666666666663h25v20.833333333333332h-25Z" fill="rgb(255, 231, 110)"/><path aria-label="country: Finland; Date: 2021-12-31; Report Count: 100" role="graphics-symbol" aria-roledescription="rect mark" d="M325,145.83333333333331h25v20.833333333333332h-25Z" fill="rgb(255, 212, 91)"/><path aria-label="country: Austria; Date: 2021-12-31; Report Count: 18" role="graphics-symbol" aria-roledescription="rect mark" d="M325,20.833333333333332h25v20.833333333333332h-25Z" fill="rgb(255, 234, 112)"/><path aria-label="country: Slovenia; Date: 2020-12-31; Report Count: 19" role="graphics-symbol" aria-roledescription="rect mark" d="M0,416.66666666666663h25v20.833333333333332h-25Z" fill="rgb(255, 233, 112)"/><path aria-label="country: Portugal; Date: 2020-12-31; Report Count: 1" role="graphics-symbol" aria-roledescription="rect mark" d="M0,395.8333333333333h25v20.833333333333332h-25Z" fill="rgb(255, 238, 117)"/><path aria-label="country: Greece; Date: 2021-12-31; Report Count: 20" role="graphics-symbol" aria-roledescription="rect mark" d="M325,208.33333333333331h25v20.833333333333332h-25Z" fill="rgb(255, 233, 112)"/><path aria-label="country: Spain; Date: 2021-01-31; Report Count: 1" role="graphics-symbol" aria-roledescription="rect mark" d="M25,437.5h25v20.833333333333332h-25Z" fill="rgb(255, 238, 117)"/><path aria-label="country: Denmark; Date: 2020-12-31; Report Count: 9" role="graphics-symbol" aria-roledescription="rect mark" d="M0,104.16666666666666h25v20.833333333333332h-25Z" fill="rgb(255, 236, 115)"/><path aria-label="country: Austria; Date: 2021-06-14; Report Count: 1" role="graphics-symbol" aria-roledescription="rect mark" d="M175,20.833333333333332h25v20.833333333333332h-25Z" fill="rgb(255, 238, 117)"/><path aria-label="country: Latvia; Date: 2020-12-31; Report Count: 1" role="graphics-symbol" aria-roledescription="rect mark" d="M0,270.8333333333333h25v20.833333333333332h-25Z" fill="rgb(255, 238, 117)"/><path aria-label="country: Austria; Date: 2021-02-28; Report Count: 1" role="graphics-symbol" aria-roledescription="rect mark" d="M50,20.833333333333332h25v20.833333333333332h-25Z" fill="rgb(255, 238, 117)"/><path aria-label="country: Denmark; Date: 2021-06-30; Report Count: 13" role="graphics-symbol" aria-roledescription="rect mark" d="M200,104.16666666666666h25v20.833333333333332h-25Z" fill="rgb(255, 235, 114)"/><path aria-label="country: United Kingdom; Date: 2021-09-30; Report Count: 2" role="graphics-symbol" aria-roledescription="rect mark" d="M225,479.16666666666663h25v20.833333333333332h-25Z" fill="rgb(255, 238, 117)"/><path aria-label="country: Denmark; Date: 2021-01-31; Report Count: 1" role="graphics-symbol" aria-roledescription="rect mark" d="M25,104.16666666666666h25v20.833333333333332h-25Z" fill="rgb(255, 238, 117)"/><path aria-label="country: Denmark; Date: 2021-09-30; Report Count: 5" role="graphics-symbol" aria-roledescription="rect mark" d="M225,104.16666666666666h25v20.833333333333332h-25Z" fill="rgb(255, 237, 116)"/><path aria-label="country: Netherlands; Date: 2022-01-02; Report Count: 1" role="graphics-symbol" aria-roledescription="rect mark" d="M375,333.3333333333333h25v20.833333333333332h-25Z" fill="rgb(255, 238, 117)"/><path aria-label="country: Belgium; Date: 2020-12-31; Report Count: 7" role="graphics-symbol" aria-roledescription="rect mark" d="M0,41.666666666666664h25v20.833333333333332h-25Z" fill="rgb(255, 237, 115)"/><path aria-label="country: Estonia; Date: 2020-12-31; Report Count: 6" role="graphics-symbol" aria-roledescription="rect mark" d="M0,125h25v20.833333333333332h-25Z" fill="rgb(255, 237, 116)"/><path aria-label="country: Denmark; Date: 2021-10-31; Report Count: 2" role="graphics-symbol" aria-roledescription="rect mark" d="M250,104.16666666666666h25v20.833333333333332h-25Z" fill="rgb(255, 238, 117)"/><path aria-label="country: Norway; Date: 2021-12-31; Report Count: 128" role="graphics-symbol" aria-roledescription="rect mark" d="M325,354.16666666666663h25v20.833333333333332h-25Z" fill="rgb(255, 205, 84)"/><path aria-label="country: Lithuania; Date: 2021-12-31; Report Count: 4" role="graphics-symbol" aria-roledescription="rect mark" d="M325,291.66666666666663h25v20.833333333333332h-25Z" fill="rgb(255, 237, 116)"/><path aria-label="country: Denmark; Date: 2021-04-30; Report Count: 1" role="graphics-symbol" aria-roledescription="rect mark" d="M150,104.16666666666666h25v20.833333333333332h-25Z" fill="rgb(255, 238, 117)"/><path aria-label="country: Hungary; Date: 2020-12-31; Report Count: 2" role="graphics-symbol" aria-roledescription="rect mark" d="M0,229.16666666666666h25v20.833333333333332h-25Z" fill="rgb(255, 238, 117)"/><path aria-label="country: Estonia; Date: 2021-12-31; Report Count: 3" role="graphics-symbol" aria-roledescription="rect mark" d="M325,125h25v20.833333333333332h-25Z" fill="rgb(255, 238, 116)"/><path aria-label="country: Croatia; Date: 2020-12-31; Report Count: 2" role="graphics-symbol" aria-roledescription="rect mark" d="M0,62.5h25v20.833333333333332h-25Z" fill="rgb(255, 238, 117)"/><path aria-label="country: Spain; Date: 2021-09-30; Report Count: 1" role="graphics-symbol" aria-roledescription="rect mark" d="M225,437.5h25v20.833333333333332h-25Z" fill="rgb(255, 238, 117)"/><path aria-label="country: Austria; Date: 2021-04-23; Report Count: 1" role="graphics-symbol" aria-roledescription="rect mark" d="M125,20.833333333333332h25v20.833333333333332h-25Z" fill="rgb(255, 238, 117)"/><path aria-label="country: Portugal; Date: 2022-12-31; Report Count: 1" role="graphics-symbol" aria-roledescription="rect mark" d="M425,395.8333333333333h25v20.833333333333332h-25Z" fill="rgb(255, 238, 117)"/><path aria-label="country: Germany; Date: 2021-03-31; Report Count: 3" role="graphics-symbol" aria-roledescription="rect mark" d="M75,187.5h25v20.833333333333332h-25Z" fill="rgb(255, 238, 116)"/><path aria-label="country: Croatia; Date: 2021-12-31; Report Count: 18" role="graphics-symbol" aria-roledescription="rect mark" d="M325,62.5h25v20.833333333333332h-25Z" fill="rgb(255, 234, 112)"/><path aria-label="country: Iceland; Date: 2021-12-31; Report Count: 16" role="graphics-symbol" aria-roledescription="rect mark" d="M325,250h25v20.833333333333332h-25Z" fill="rgb(255, 234, 113)"/><path aria-label="country: Spain; Date: 2021-03-31; Report Count: 1" role="graphics-symbol" aria-roledescription="rect mark" d="M75,437.5h25v20.833333333333332h-25Z" fill="rgb(255, 238, 117)"/><path aria-label="country: United Kingdom; Date: 2022-01-29; Report Count: 1" role="graphics-symbol" aria-roledescription="rect mark" d="M400,479.16666666666663h25v20.833333333333332h-25Z" fill="rgb(255, 238, 117)"/><path aria-label="country: Portugal; Date: 2021-12-31; Report Count: 9" role="graphics-symbol" aria-roledescription="rect mark" d="M325,395.8333333333333h25v20.833333333333332h-25Z" fill="rgb(255, 236, 115)"/><path aria-label="country: Latvia; Date: 2021-12-31; Report Count: 2" role="graphics-symbol" aria-roledescription="rect mark" d="M325,270.8333333333333h25v20.833333333333332h-25Z" fill="rgb(255, 238, 117)"/><path aria-label="country: Poland; Date: 2021-03-31; Report Count: 2" role="graphics-symbol" aria-roledescription="rect mark" d="M75,375h25v20.833333333333332h-25Z" fill="rgb(255, 238, 117)"/><path aria-label="country: United Kingdom; Date: 2021-11-30; Report Count: 1" role="graphics-symbol" aria-roledescription="rect mark" d="M275,479.16666666666663h25v20.833333333333332h-25Z" fill="rgb(255, 238, 117)"/><path aria-label="country: Belgium; Date: 2021-03-31; Report Count: 4" role="graphics-symbol" aria-roledescription="rect mark" d="M75,41.666666666666664h25v20.833333333333332h-25Z" fill="rgb(255, 237, 116)"/><path aria-label="country: Austria; Date: 2021-03-31; Report Count: 6" role="graphics-symbol" aria-roledescription="rect mark" d="M75,20.833333333333332h25v20.833333333333332h-25Z" fill="rgb(255, 237, 116)"/><path aria-label="country: France; Date: 2021-09-30; Report Count: 2" role="graphics-symbol" aria-roledescription="rect mark" d="M225,166.66666666666666h25v20.833333333333332h-25Z" fill="rgb(255, 238, 117)"/><path aria-label="country: Austria; Date: 2021-04-30; Report Count: 2" role="graphics-symbol" aria-roledescription="rect mark" d="M150,20.833333333333332h25v20.833333333333332h-25Z" fill="rgb(255, 238, 117)"/><path aria-label="country: Belgium; Date: 2021-09-30; Report Count: 1" role="graphics-symbol" aria-roledescription="rect mark" d="M225,41.666666666666664h25v20.833333333333332h-25Z" fill="rgb(255, 238, 117)"/><path aria-label="country: Germany; Date: 2021-06-30; Report Count: 6" role="graphics-symbol" aria-roledescription="rect mark" d="M200,187.5h25v20.833333333333332h-25Z" fill="rgb(255, 237, 116)"/><path aria-label="country: Norway; Date: 2021-11-30; Report Count: 1" role="graphics-symbol" aria-roledescription="rect mark" d="M275,354.16666666666663h25v20.833333333333332h-25Z" fill="rgb(255, 238, 117)"/><path aria-label="country: United Kingdom; Date: 2022-01-01; Report Count: 3" role="graphics-symbol" aria-roledescription="rect mark" d="M350,479.16666666666663h25v20.833333333333332h-25Z" fill="rgb(255, 238, 116)"/><path aria-label="country: Spain; Date: 2021-06-30; Report Count: 1" role="graphics-symbol" aria-roledescription="rect mark" d="M200,437.5h25v20.833333333333332h-25Z" fill="rgb(255, 238, 117)"/><path aria-label="country: Spain; Date: 6174-12-31; Report Count: 1" role="graphics-symbol" aria-roledescription="rect mark" d="M475,437.5h25v20.833333333333332h-25Z" fill="rgb(255, 238, 117)"/><path aria-label="country: Netherlands; Date: 2021-09-30; Report Count: 1" role="graphics-symbol" aria-roledescription="rect mark" d="M225,333.3333333333333h25v20.833333333333332h-25Z" fill="rgb(255, 238, 117)"/><path aria-label="country: Austria; Date: 2021-09-30; Report Count: 3" role="graphics-symbol" aria-roledescription="rect mark" d="M225,20.833333333333332h25v20.833333333333332h-25Z" fill="rgb(255, 238, 116)"/><path aria-label="country: Germany; Date: 2021-02-28; Report Count: 3" role="graphics-symbol" aria-roledescription="rect mark" d="M50,187.5h25v20.833333333333332h-25Z" fill="rgb(255, 238, 116)"/><path aria-label="country: France; Date: 2021-11-30; Report Count: 1" role="graphics-symbol" aria-roledescription="rect mark" d="M275,166.66666666666666h25v20.833333333333332h-25Z" fill="rgb(255, 238, 117)"/><path aria-label="country: United Kingdom; Date: 2021-12-26; Report Count: 1" role="graphics-symbol" aria-roledescription="rect mark" d="M300,479.16666666666663h25v20.833333333333332h-25Z" fill="rgb(255, 238, 117)"/><path aria-label="country: France; Date: 2021-10-31; Report Count: 1" role="graphics-symbol" aria-roledescription="rect mark" d="M250,166.66666666666666h25v20.833333333333332h-25Z" fill="rgb(255, 238, 117)"/><path aria-label="country: Sweden; Date: 2058-01-01; Report Count: 1" role="graphics-symbol" aria-roledescription="rect mark" d="M450,458.3333333333333h25v20.833333333333332h-25Z" fill="rgb(255, 238, 117)"/><path aria-label="country: France; Date: 2021-01-31; Report Count: 1" role="graphics-symbol" aria-roledescription="rect mark" d="M25,166.66666666666666h25v20.833333333333332h-25Z" fill="rgb(255, 238, 117)"/><path aria-label="country: United Kingdom; Date: 2021-04-03; Report Count: 1" role="graphics-symbol" aria-roledescription="rect mark" d="M100,479.16666666666663h25v20.833333333333332h-25Z" fill="rgb(255, 238, 117)"/><path aria-label="country: Finland; Date: 2021-09-30; Report Count: 1" role="graphics-symbol" aria-roledescription="rect mark" d="M225,145.83333333333331h25v20.833333333333332h-25Z" fill="rgb(255, 238, 117)"/><path aria-label="country: France; Date: 2022-12-31; Report Count: 1" role="graphics-symbol" aria-roledescription="rect mark" d="M425,166.66666666666666h25v20.833333333333332h-25Z" fill="rgb(255, 238, 117)"/><path aria-label="country: null; Date: 2021-12-31; Report Count: 9" role="graphics-symbol" aria-roledescription="rect mark" d="M325,0h25v20.833333333333332h-25Z" fill="rgb(255, 236, 115)"/></g><g class="mark-group role-title"><g transform="translate(250,-17)"><path class="background" aria-hidden="true" d="M0,0h0v0h0Z" pointer-events="none"/><g><g class="mark-text role-title-text" role="graphics-symbol" aria-roledescription="title" aria-label="Title text 'Report Publication by Country and Date'" pointer-events="none"><text text-anchor="middle" transform="translate(0,10)" font-family="sans-serif" font-size="13px" font-weight="bold" fill="#000" opacity="1">Report Publication by Country and Date</text></g></g><path class="foreground" aria-hidden="true" d="" pointer-events="none" display="none"/></g></g><g class="mark-group role-axis" role="graphics-symbol" aria-roledescription="axis" aria-label="X-axis titled 'Date' for a discrete scale with 20 values: 2020-12-31, 2021-01-31, 2021-02-28, 2021-03-31, 2021-04-03, ending with 6174-12-31"><g transform="translate(0.5,500.5)"><path class="background" aria-hidden="true" d="M0,0h0v0h0Z" pointer-events="none"/><g><g class="mark-rule role-axis-tick" pointer-events="none"><line transform="translate(12,0)" x2="0" y2="5" stroke="#888" stroke-width="1" opacity="1"/><line transform="translate(37,0)" x2="0" y2="5" stroke="#888" stroke-width="1" opacity="1"/><line transform="translate(62,0)" x2="0" y2="5" stroke="#888" stroke-width="1" opacity="1"/><line transform="translate(87,0)" x2="0" y2="5" stroke="#888" stroke-width="1" opacity="1"/><line transform="translate(112,0)" x2="0" y2="5" stroke="#888" stroke-width="1" opacity="1"/><line transform="translate(137,0)" x2="0" y2="5" stroke="#888" stroke-width="1" opacity="1"/><line transform="translate(162,0)" x2="0" y2="5" stroke="#888" stroke-width="1" opacity="1"/><line transform="translate(187,0)" x2="0" y2="5" stroke="#888" stroke-width="1" opacity="1"/><line transform="translate(212,0)" x2="0" y2="5" stroke="#888" stroke-width="1" opacity="1"/><line transform="translate(237,0)" x2="0" y2="5" stroke="#888" stroke-width="1" opacity="1"/><line transform="translate(262,0)" x2="0" y2="5" stroke="#888" stroke-width="1" opacity="1"/><line transform="translate(287,0)" x2="0" y2="5" stroke="#888" stroke-width="1" opacity="1"/><line transform="translate(312,0)" x2="0" y2="5" stroke="#888" stroke-width="1" opacity="1"/><line transform="translate(337,0)" x2="0" y2="5" stroke="#888" stroke-width="1" opacity="1"/><line transform="translate(362,0)" x2="0" y2="5" stroke="#888" stroke-width="1" opacity="1"/><line transform="translate(387,0)" x2="0" y2="5" stroke="#888" stroke-width="1" opacity="1"/><line transform="translate(412,0)" x2="0" y2="5" stroke="#888" stroke-width="1" opacity="1"/><line transform="translate(437,0)" x2="0" y2="5" stroke="#888" stroke-width="1" opacity="1"/><line transform="translate(462,0)" x2="0" y2="5" stroke="#888" stroke-width="1" opacity="1"/><line transform="translate(487,0)" x2="0" y2="5" stroke="#888" stroke-width="1" opacity="1"/></g><g class="mark-text role-axis-label" pointer-events="none"><text text-anchor="end" transform="translate(12,7) rotate(270) translate(0,3)" font-family="sans-serif" font-size="10px" fill="#000" opacity="1">2020-12-31</text><text text-anchor="end" transform="translate(37,7) rotate(270) translate(0,3)" font-family="sans-serif" font-size="10px" fill="#000" opacity="1">2021-01-31</text><text text-anchor="end" transform="translate(62,7) rotate(270) translate(0,3)" font-family="sans-serif" font-size="10px" fill="#000" opacity="1">2021-02-28</text><text text-anchor="end" transform="translate(87,7) rotate(270) translate(0,3)" font-family="sans-serif" font-size="10px" fill="#000" opacity="1">2021-03-31</text><text text-anchor="end" transform="translate(112,7) rotate(270) translate(0,3)" font-family="sans-serif" font-size="10px" fill="#000" opacity="1">2021-04-03</text><text text-anchor="end" transform="translate(137,7) rotate(270) translate(0,3)" font-family="sans-serif" font-size="10px" fill="#000" opacity="1">2021-04-23</text><text text-anchor="end" transform="translate(162,7) rotate(270) translate(0,3)" font-family="sans-serif" font-size="10px" fill="#000" opacity="1">2021-04-30</text><text text-anchor="end" transform="translate(187,7) rotate(270) translate(0,3)" font-family="sans-serif" font-size="10px" fill="#000" opacity="1">2021-06-14</text><text text-anchor="end" transform="translate(212,7) rotate(270) translate(0,3)" font-family="sans-serif" font-size="10px" fill="#000" opacity="1">2021-06-30</text><text text-anchor="end" transform="translate(237,7) rotate(270) translate(0,3)" font-family="sans-serif" font-size="10px" fill="#000" opacity="1">2021-09-30</text><text text-anchor="end" transform="translate(262,7) rotate(270) translate(0,3)" font-family="sans-serif" font-size="10px" fill="#000" opacity="1">2021-10-31</text><text text-anchor="end" transform="translate(287,7) rotate(270) translate(0,3)" font-family="sans-serif" font-size="10px" fill="#000" opacity="1">2021-11-30</text><text text-anchor="end" transform="translate(312,7) rotate(270) translate(0,3)" font-family="sans-serif" font-size="10px" fill="#000" opacity="1">2021-12-26</text><text text-anchor="end" transform="translate(337,7) rotate(270) translate(0,3)" font-family="sans-serif" font-size="10px" fill="#000" opacity="1">2021-12-31</text><text text-anchor="end" transform="translate(362,7) rotate(270) translate(0,3)" font-family="sans-serif" font-size="10px" fill="#000" opacity="1">2022-01-01</text><text text-anchor="end" transform="translate(387,7) rotate(270) translate(0,3)" font-family="sans-serif" font-size="10px" fill="#000" opacity="1">2022-01-02</text><text text-anchor="end" transform="translate(412,7) rotate(270) translate(0,3)" font-family="sans-serif" font-size="10px" fill="#000" opacity="1">2022-01-29</text><text text-anchor="end" transform="translate(437,7) rotate(270) translate(0,3)" font-family="sans-serif" font-size="10px" fill="#000" opacity="1">2022-12-31</text><text text-anchor="end" transform="translate(462,7) rotate(270) translate(0,3)" font-family="sans-serif" font-size="10px" fill="#000" opacity="1">2058-01-01</text><text text-anchor="end" transform="translate(487,7) rotate(270) translate(0,3)" font-family="sans-serif" font-size="10px" fill="#000" opacity="1">6174-12-31</text></g><g class="mark-rule role-axis-domain" pointer-events="none"><line transform="translate(0,0)" x2="500" y2="0" stroke="#888" stroke-width="1" opacity="1"/></g><g class="mark-text role-axis-title" pointer-events="none"><text text-anchor="middle" transform="translate(250,76)" font-family="sans-serif" font-size="11px" font-weight="bold" fill="#000" opacity="1">Date</text></g></g><path class="foreground" aria-hidden="true" d="" pointer-events="none" display="none"/></g></g><g class="mark-group role-axis" role="graphics-symbol" aria-roledescription="axis" aria-label="Y-axis for a discrete scale with 24 values: null, Austria, Belgium, Croatia, Czechia, ending with United Kingdom"><g transform="translate(0.5,0.5)"><path class="background" aria-hidden="true" d="M0,0h0v0h0Z" pointer-events="none"/><g><g class="mark-rule role-axis-tick" pointer-events="none"><line transform="translate(0,10)" x2="-5" y2="0" stroke="#888" stroke-width="1" opacity="1"/><line transform="translate(0,31)" x2="-5" y2="0" stroke="#888" stroke-width="1" opacity="1"/><line transform="translate(0,52)" x2="-5" y2="0" stroke="#888" stroke-width="1" opacity="1"/><line transform="translate(0,72)" x2="-5" y2="0" stroke="#888" stroke-width="1" opacity="1"/><line transform="translate(0,93)" x2="-5" y2="0" stroke="#888" stroke-width="1" opacity="1"/><line transform="translate(0,114)" x2="-5" y2="0" stroke="#888" stroke-width="1" opacity="1"/><line transform="translate(0,135)" x2="-5" y2="0" stroke="#888" stroke-width="1" opacity="1"/><line transform="translate(0,156)" x2="-5" y2="0" stroke="#888" stroke-width="1" opacity="1"/><line transform="translate(0,177)" x2="-5" y2="0" stroke="#888" stroke-width="1" opacity="1"/><line transform="translate(0,197)" x2="-5" y2="0" stroke="#888" stroke-width="1" opacity="1"/><line transform="translate(0,218)" x2="-5" y2="0" stroke="#888" stroke-width="1" opacity="1"/><line transform="translate(0,239)" x2="-5" y2="0" stroke="#888" stroke-width="1" opacity="1"/><line transform="translate(0,260)" x2="-5" y2="0" stroke="#888" stroke-width="1" opacity="1"/><line transform="translate(0,281)" x2="-5" y2="0" stroke="#888" stroke-width="1" opacity="1"/><line transform="translate(0,302)" x2="-5" y2="0" stroke="#888" stroke-width="1" opacity="1"/><line transform="translate(0,322)" x2="-5" y2="0" stroke="#888" stroke-width="1" opacity="1"/><line transform="translate(0,343)" x2="-5" y2="0" stroke="#888" stroke-width="1" opacity="1"/><line transform="translate(0,364)" x2="-5" y2="0" stroke="#888" stroke-width="1" opacity="1"/><line transform="translate(0,385)" x2="-5" y2="0" stroke="#888" stroke-width="1" opacity="1"/><line transform="translate(0,406)" x2="-5" y2="0" stroke="#888" stroke-width="1" opacity="1"/><line transform="translate(0,427)" x2="-5" y2="0" stroke="#888" stroke-width="1" opacity="1"/><line transform="translate(0,447)" x2="-5" y2="0" stroke="#888" stroke-width="1" opacity="1"/><line transform="translate(0,468)" x2="-5" y2="0" stroke="#888" stroke-width="1" opacity="1"/><line transform="translate(0,489)" x2="-5" y2="0" stroke="#888" stroke-width="1" opacity="1"/></g><g class="mark-text role-axis-label" pointer-events="none"><text text-anchor="end" transform="translate(-7,12.916666666666666)" font-family="sans-serif" font-size="10px" fill="#000" opacity="1">null</text><text text-anchor="end" transform="translate(-7,33.75)" font-family="sans-serif" font-size="10px" fill="#000" opacity="1">Austria</text><text text-anchor="end" transform="translate(-7,54.58333333333333)" font-family="sans-serif" font-size="10px" fill="#000" opacity="1">Belgium</text><text text-anchor="end" transform="translate(-7,75.41666666666667)" font-family="sans-serif" font-size="10px" fill="#000" opacity="1">Croatia</text><text text-anchor="end" transform="translate(-7,96.25)" font-family="sans-serif" font-size="10px" fill="#000" opacity="1">Czechia</text><text text-anchor="end" transform="translate(-7,117.08333333333333)" font-family="sans-serif" font-size="10px" fill="#000" opacity="1">Denmark</text><text text-anchor="end" transform="translate(-7,137.91666666666666)" font-family="sans-serif" font-size="10px" fill="#000" opacity="1">Estonia</text><text text-anchor="end" transform="translate(-7,158.74999999999997)" font-family="sans-serif" font-size="10px" fill="#000" opacity="1">Finland</text><text text-anchor="end" transform="translate(-7,179.58333333333331)" font-family="sans-serif" font-size="10px" fill="#000" opacity="1">France</text><text text-anchor="end" transform="translate(-7,200.41666666666666)" font-family="sans-serif" font-size="10px" fill="#000" opacity="1">Germany</text><text text-anchor="end" transform="translate(-7,221.24999999999997)" font-family="sans-serif" font-size="10px" fill="#000" opacity="1">Greece</text><text text-anchor="end" transform="translate(-7,242.08333333333331)" font-family="sans-serif" font-size="10px" fill="#000" opacity="1">Hungary</text><text text-anchor="end" transform="translate(-7,262.9166666666667)" font-family="sans-serif" font-size="10px" fill="#000" opacity="1">Iceland</text><text text-anchor="end" transform="translate(-7,283.75)" font-family="sans-serif" font-size="10px" fill="#000" opacity="1">Latvia</text><text text-anchor="end" transform="translate(-7,304.5833333333333)" font-family="sans-serif" font-size="10px" fill="#000" opacity="1">Lithuania</text><text text-anchor="end" transform="translate(-7,325.4166666666667)" font-family="sans-serif" font-size="10px" fill="#000" opacity="1">Luxembourg</text><text text-anchor="end" transform="translate(-7,346.25)" font-family="sans-serif" font-size="10px" fill="#000" opacity="1">Netherlands</text><text text-anchor="end" transform="translate(-7,367.0833333333333)" font-family="sans-serif" font-size="10px" fill="#000" opacity="1">Norway</text><text text-anchor="end" transform="translate(-7,387.9166666666667)" font-family="sans-serif" font-size="10px" fill="#000" opacity="1">Poland</text><text text-anchor="end" transform="translate(-7,408.75)" font-family="sans-serif" font-size="10px" fill="#000" opacity="1">Portugal</text><text text-anchor="end" transform="translate(-7,429.5833333333333)" font-family="sans-serif" font-size="10px" fill="#000" opacity="1">Slovenia</text><text text-anchor="end" transform="translate(-7,450.4166666666667)" font-family="sans-serif" font-size="10px" fill="#000" opacity="1">Spain</text><text text-anchor="end" transform="translate(-7,471.25)" font-family="sans-serif" font-size="10px" fill="#000" opacity="1">Sweden</text><text text-anchor="end" transform="translate(-7,492.0833333333333)" font-family="sans-serif" font-size="10px" fill="#000" opacity="1">United Kingdom</text></g><g class="mark-rule role-axis-domain" pointer-events="none"><line transform="translate(0,0)" x2="0" y2="500" stroke="#888" stroke-width="1" opacity="1"/></g></g><path class="foreground" aria-hidden="true" d="" pointer-events="none" display="none"/></g></g></g><path class="foreground" aria-hidden="true" d="" display="none"/></g></g><g class="mark-group role-legend" role="graphics-symbol" aria-roledescription="legend" aria-label="Gradient legend titled 'Report Count' for fill color with values from 1 to 224"><g transform="translate(519,0)"><path class="background" aria-hidden="true" d="M0,0h82v216h-82Z" pointer-events="none"/><g><g class="mark-group role-legend-entry"><g transform="translate(0,16)"><path class="background" aria-hidden="true" d="M0,0h0v0h0Z" pointer-events="none"/><g><g class="mark-rect role-legend-gradient" pointer-events="none"><path d="M0,0h16v200h-16Z" fill="url(#gradient_0)" stroke="#ddd" stroke-width="0" opacity="1"/></g><g class="mark-text role-legend-label" pointer-events="none"><text text-anchor="start" transform="translate(18,159.05381165919283)" font-family="sans-serif" font-size="10px" fill="#000" opacity="1">50</text><text text-anchor="start" transform="translate(18,114.21076233183858)" font-family="sans-serif" font-size="10px" fill="#000" opacity="1">100</text><text text-anchor="start" transform="translate(18,69.3677130044843)" font-family="sans-serif" font-size="10px" fill="#000" opacity="1">150</text><text text-anchor="start" transform="translate(18,24.52466367713004)" font-family="sans-serif" font-size="10px" fill="#000" opacity="1">200</text></g></g><path class="foreground" aria-hidden="true" d="" pointer-events="none" display="none"/></g></g><g class="mark-text role-legend-title" pointer-events="none"><text text-anchor="start" transform="translate(0,9)" font-family="sans-serif" font-size="11px" font-weight="bold" fill="#000" opacity="1">Report Count</text></g></g><path class="foreground" aria-hidden="true" d="" pointer-events="none" display="none"/></g></g></g><path class="foreground" aria-hidden="true" d="" display="none"/></g></g></g><defs><linearGradient id="gradient_0" x1="0" x2="0" y1="1" y2="0"><stop offset="0" stop-color="rgb(255, 238, 117)"/><stop offset="0.08520179372197309" stop-color="rgb(255, 233, 112)"/><stop offset="0.17488789237668162" stop-color="rgb(255, 228, 107)"/><stop offset="0.2645739910313901" stop-color="rgb(255, 223, 102)"/><stop offset="0.3542600896860987" stop-color="rgb(255, 217, 97)"/><stop offset="0.4439461883408072" stop-color="rgb(255, 212, 91)"/><stop offset="0.5336322869955157" stop-color="rgb(255, 207, 86)"/><stop offset="0.6233183856502242" stop-color="rgb(255, 202, 81)"/><stop offset="0.7130044843049327" stop-color="rgb(255, 196, 76)"/><stop offset="0.8026905829596412" stop-color="rgb(255, 191, 71)"/><stop offset="0.8923766816143498" stop-color="rgb(255, 186, 65)"/><stop offset="0.9820627802690582" stop-color="rgb(255, 181, 60)"/><stop offset="1" stop-color="rgb(255, 180, 59)"/></linearGradient></defs></svg>
