<?xml version="1.0" encoding="utf-8"?>
<!DOCTYPE svg PUBLIC "-//W3C//DTD SVG 1.1//EN" "http://www.w3.org/Graphics/SVG/1.1/DTD/svg11.dtd">
<svg xmlns="http://www.w3.org/2000/svg" xmlns:xlink="http://www.w3.org/1999/xlink" version="1.1" class="marks" width="550" height="432" viewBox="0 0 550 432"><rect width="550" height="432" fill="white"/><g fill="none" stroke-miterlimit="10" transform="translate(45,41)"><g class="mark-group role-frame root" role="graphics-object" aria-roledescription="group mark container"><g transform="translate(0,0)"><path class="background" aria-hidden="true" d="M0.5,0.5h500v300h-500Z" stroke="#ddd"/><g><g class="mark-group role-axis" aria-hidden="true"><g transform="translate(0.5,0.5)"><path class="background" aria-hidden="true" d="M0,0h0v0h0Z" pointer-events="none"/><g><g class="mark-rule role-axis-grid" pointer-events="none"><line transform="translate(0,300)" x2="500" y2="0" stroke="#ddd" stroke-width="1" opacity="1"/><line transform="translate(0,257)" x2="500" y2="0" stroke="#ddd" stroke-width="1" opacity="1"/><line transform="translate(0,214)" x2="500" y2="0" stroke="#ddd" stroke-width="1" opacity="1"/><line transform="translate(0,171)" x2="500" y2="0" stroke="#ddd" stroke-width="1" opacity="1"/><line transform="translate(0,129)" x2="500" y2="0" stroke="#ddd" stroke-width="1" opacity="1"/><line transform="translate(0,86)" x2="500" y2="0" stroke="#ddd" stroke-width="1" opacity="1"/><line transform="translate(0,43)" x2="500" y2="0" stroke="#ddd" stroke-width="1" opacity="1"/><line transform="translate(0,0)" x2="500" y2="0" stroke="#ddd" stroke-width="1" opacity="1"/></g></g><path class="foreground" aria-hidden="true" d="" pointer-events="none" display="none"/></g></g><g class="mark-group role-axis" role="graphics-symbol" aria-roledescription="axis" aria-label="X-axis for a discrete scale with 25 values: United Kingdom, Sweden, France, Poland, Germany, ending with Latvia"><g transform="translate(0.5,300.5)"><path class="background" aria-hidden="true" d="M0,0h0v0h0Z" pointer-events="none"/><g><g class="mark-rule role-axis-tick" pointer-events="none"><line transform="translate(10,0)" x2="0" y2="5" stroke="#888" stroke-width="1" opacity="1"/><line transform="translate(30,0)" x2="0" y2="5" stroke="#888" stroke-width="1" opacity="1"/><line transform="translate(50,0)" x2="0" y2="5" stroke="#888" stroke-width="1" opacity="1"/><line transform="translate(70,0)" x2="0" y2="5" stroke="#888" stroke-width="1" opacity="1"/><line transform="translate(90,0)" x2="0" y2="5" stroke="#888" stroke-width="1" opacity="1"/><line transform="translate(110,0)" x2="0" y2="5" stroke="#888" stroke-width="1" opacity="1"/><line transform="translate(130,0)" x2="0" y2="5" stroke="#888" stroke-width="1" opacity="1"/><line transform="translate(150,0)" x2="0" y2="5" stroke="#888" stroke-width="1" opacity="1"/><line transform="translate(170,0)" x2="0" y2="5" stroke="#888" stroke-width="1" opacity="1"/><line transform="translate(190,0)" x2="0" y2="5" stroke="#888" stroke-width="1" opacity="1"/><line transform="translate(210,0)" x2="0" y2="5" stroke="#888" stroke-width="1" opacity="1"/><line transform="translate(230,0)" x2="0" y2="5" stroke="#888" stroke-width="1" opacity="1"/><line transform="translate(250,0)" x2="0" y2="5" stroke="#888" stroke-width="1" opacity="1"/><line transform="translate(270,0)" x2="0" y2="5" stroke="#888" stroke-width="1" opacity="1"/><line transform="translate(290,0)" x2="0" y2="5" stroke="#888" stroke-width="1" opacity="1"/><line transform="translate(310,0)" x2="0" y2="5" stroke="#888" stroke-width="1" opacity="1"/><line transform="translate(330,0)" x2="0" y2="5" stroke="#888" stroke-width="1" opacity="1"/><line transform="translate(350,0)" x2="0" y2="5" stroke="#888" stroke-width="1" opacity="1"/><line transform="translate(370,0)" x2="0" y2="5" stroke="#888" stroke-width="1" opacity="1"/><line transform="translate(390,0)" x2="0" y2="5" stroke="#888" stroke-width="1" opacity="1"/><line transform="translate(410,0)" x2="0" y2="5" stroke="#888" stroke-width="1" opacity="1"/><line transform="translate(430,0)" x2="0" y2="5" stroke="#888" stroke-width="1" opacity="1"/><line transform="translate(450,0)" x2="0" y2="5" stroke="#888" stroke-width="1" opacity="1"/><line transform="translate(470,0)" x2="0" y2="5" stroke="#888" stroke-width="1" opacity="1"/><line transform="translate(490,0)" x2="0" y2="5" stroke="#888" stroke-width="1" opacity="1"/></g><g class="mark-text role-axis-label" pointer-events="none"><text text-anchor="end" transform="translate(9.5,7) rotate(270) translate(0,3)" font-family="sans-serif" font-size="10px" fill="#000" opacity="1">United Kingdom</text><text text-anchor="end" transform="translate(29.5,7) rotate(270) translate(0,3)" font-family="sans-serif" font-size="10px" fill="#000" opacity="1">Sweden</text><text text-anchor="end" transform="translate(49.5,7) rotate(270) translate(0,3)" font-family="sans-serif" font-size="10px" fill="#000" opacity="1">France</text><text text-anchor="end" transform="translate(69.5,7) rotate(270) translate(0,3)" font-family="sans-serif" font-size="10px" fill="#000" opacity="1">Poland</text><text text-anchor="end" transform="translate(89.5,7) rotate(270) translate(0,3)" font-family="sans-serif" font-size="10px" fill="#000" opacity="1">Germany</text><text text-anchor="end" transform="translate(109.5,7) rotate(270) translate(0,3)" font-family="sans-serif" font-size="10px" fill="#000" opacity="1">Norway</text><text text-anchor="end" transform="translate(129.5,7) rotate(270) translate(0,3)" font-family="sans-serif" font-size="10px" fill="#000" opacity="1">Finland</text><text text-anchor="end" transform="translate(149.5,7) rotate(270) translate(0,3)" font-family="sans-serif" font-size="10px" fill="#000" opacity="1">Netherlands</text><text text-anchor="end" transform="translate(169.5,7) rotate(270) translate(0,3)" font-family="sans-serif" font-size="10px" fill="#000" opacity="1">Denmark</text><text text-anchor="end" transform="translate(189.5,7) rotate(270) translate(0,3)" font-family="sans-serif" font-size="10px" fill="#000" opacity="1">Spain</text><text text-anchor="end" transform="translate(209.5,7) rotate(270) translate(0,3)" font-family="sans-serif" font-size="10px" fill="#000" opacity="1">Belgium</text><text text-anchor="end" transform="translate(229.5,7) rotate(270) translate(0,3)" font-family="sans-serif" font-size="10px" fill="#000" opacity="1">Austria</text><text text-anchor="end" transform="translate(249.5,7) rotate(270) translate(0,3)" font-family="sans-serif" font-size="10px" fill="#000" opacity="1">Luxembourg</text><text text-anchor="end" transform="translate(269.5,7) rotate(270) translate(0,3)" font-family="sans-serif" font-size="10px" fill="#000" opacity="1">Italy</text><text text-anchor="end" transform="translate(289.5,7) rotate(270) translate(0,3)" font-family="sans-serif" font-size="10px" fill="#000" opacity="1">Malta</text><text text-anchor="end" transform="translate(309.5,7) rotate(270) translate(0,3)" font-family="sans-serif" font-size="10px" fill="#000" opacity="1">Greece</text><text text-anchor="end" transform="translate(329.5,7) rotate(270) translate(0,3)" font-family="sans-serif" font-size="10px" fill="#000" opacity="1">Czechia</text><text text-anchor="end" transform="translate(349.5,7) rotate(270) translate(0,3)" font-family="sans-serif" font-size="10px" fill="#000" opacity="1">Portugal</text><text text-anchor="end" transform="translate(369.5,7) rotate(270) translate(0,3)" font-family="sans-serif" font-size="10px" fill="#000" opacity="1">Croatia</text><text text-anchor="end" transform="translate(389.5,7) rotate(270) translate(0,3)" font-family="sans-serif" font-size="10px" fill="#000" opacity="1">Slovenia</text><text text-anchor="end" transform="translate(409.5,7) rotate(270) translate(0,3)" font-family="sans-serif" font-size="10px" fill="#000" opacity="1">Iceland</text><text text-anchor="end" transform="translate(429.5,7) rotate(270) translate(0,3)" font-family="sans-serif" font-size="10px" fill="#000" opacity="1">Hungary</text><text text-anchor="end" transform="translate(449.5,7) rotate(270) translate(0,3)" font-family="sans-serif" font-size="10px" fill="#000" opacity="1">Lithuania</text><text text-anchor="end" transform="translate(469.5,7) rotate(270) translate(0,3)" font-family="sans-serif" font-size="10px" fill="#000" opacity="1">Estonia</text><text text-anchor="end" transform="translate(489.5,7) rotate(270) translate(0,3)" font-family="sans-serif" font-size="10px" fill="#000" opacity="1">Latvia</text></g><g class="mark-rule role-axis-domain" pointer-events="none"><line transform="translate(0,0)" x2="500" y2="0" stroke="#888" stroke-width="1" opacity="1"/></g></g><path class="foreground" aria-hidden="true" d="" pointer-events="none" display="none"/></g></g><g class="mark-group role-axis" role="graphics-symbol" aria-roledescription="axis" aria-label="Y-axis titled 'Report Count' for a linear scale with values from 0 to 350"><g transform="translate(0.5,0.5)"><path class="background" aria-hidden="true" d="M0,0h0v0h0Z" pointer-events="none"/><g><g class="mark-rule role-axis-tick" pointer-events="none"><line transform="translate(0,300)" x2="-5" y2="0" stroke="#888" stroke-width="1" opacity="1"/><line transform="translate(0,257)" x2="-5" y2="0" stroke="#888" stroke-width="1" opacity="1"/><line transform="translate(0,214)" x2="-5" y2="0" stroke="#888" stroke-width="1" opacity="1"/><line transform="translate(0,171)" x2="-5" y2="0" stroke="#888" stroke-width="1" opacity="1"/><line transform="translate(0,129)" x2="-5" y2="0" stroke="#888" stroke-width="1" opacity="1"/><line transform="translate(0,86)" x2="-5" y2="0" stroke="#888" stroke-width="1" opacity="1"/><line transform="translate(0,43)" x2="-5" y2="0" stroke="#888" stroke-width="1" opacity="1"/><line transform="translate(0,0)" x2="-5" y2="0" stroke="#888" stroke-width="1" opacity="1"/></g><g class="mark-text role-axis-label" pointer-events="none"><text text-anchor="end" transform="translate(-7,303)" font-family="sans-serif" font-size="10px" fill="#000" opacity="1">0</text><text text-anchor="end" transform="translate(-7,260.14285714285717)" font-family="sans-serif" font-size="10px" fill="#000" opacity="1">50</text><text text-anchor="end" transform="translate(-7,217.28571428571428)" font-family="sans-serif" font-size="10px" fill="#000" opacity="1">100</text><text text-anchor="end" transform="translate(-7,174.42857142857142)" font-family="sans-serif" font-size="10px" fill="#000" opacity="1">150</text><text text-anchor="end" transform="translate(-7,131.57142857142858)" font-family="sans-serif" font-size="10px" fill="#000" opacity="1">200</text><text text-anchor="end" transform="translate(-7,88.71428571428571)" font-family="sans-serif" font-size="10px" fill="#000" opacity="1">250</text><text text-anchor="end" transform="translate(-7,45.85714285714287)" font-family="sans-serif" font-size="10px" fill="#000" opacity="1">300</text><text text-anchor="end" transform="translate(-7,3)" font-family="sans-serif" font-size="10px" fill="#000" opacity="1">350</text></g><g class="mark-rule role-axis-domain" pointer-events="none"><line transform="translate(0,300)" x2="0" y2="-300" stroke="#888" stroke-width="1" opacity="1"/></g><g class="mark-text role-axis-title" pointer-events="none"><text text-anchor="middle" transform="translate(-29,150) rotate(-90) translate(0,-2)" font-family="sans-serif" font-size="11px" font-weight="bold" fill="#000" opacity="1">Report Count</text></g></g><path class="foreground" aria-hidden="true" d="" pointer-events="none" display="none"/></g></g><g class="mark-rect role-mark marks" role="graphics-object" aria-roledescription="rect mark container"><path aria-label="country: Finland; Report Count: 142" role="graphics-symbol" aria-roledescription="bar" d="M121,178.28571428571428h18v121.71428571428572h-18Z" fill="#1b8a8f"/><path aria-label="country: Germany; Report Count: 207" role="graphics-symbol" aria-roledescription="bar" d="M81,122.57142857142857h18v177.42857142857144h-18Z" fill="#1b8a8f"/><path aria-label="country: Austria; Report Count: 80" role="graphics-symbol" aria-roledescription="bar" d="M221,231.42857142857144h18v68.57142857142856h-18Z" fill="#1b8a8f"/><path aria-label="country: United Kingdom; Report Count: 310" role="graphics-symbol" aria-roledescription="bar" d="M1,34.2857142857143h18v265.7142857142857h-18Z" fill="#1b8a8f"/><path aria-label="country: Spain; Report Count: 113" role="graphics-symbol" aria-roledescription="bar" d="M181,203.14285714285714h18v96.85714285714286h-18Z" fill="#1b8a8f"/><path aria-label="country: France; Report Count: 226" role="graphics-symbol" aria-roledescription="bar" d="M41,106.28571428571429h18v193.71428571428572h-18Z" fill="#1b8a8f"/><path aria-label="country: Netherlands; Report Count: 114" role="graphics-symbol" aria-roledescription="bar" d="M141,202.28571428571428h18v97.71428571428572h-18Z" fill="#1b8a8f"/><path aria-label="country: Belgium; Report Count: 95" role="graphics-symbol" aria-roledescription="bar" d="M201,218.57142857142858h18v81.42857142857142h-18Z" fill="#1b8a8f"/><path aria-label="country: Poland; Report Count: 224" role="graphics-symbol" aria-roledescription="bar" d="M61,108h18v192h-18Z" fill="#1b8a8f"/><path aria-label="country: Portugal; Report Count: 26" role="graphics-symbol" aria-roledescription="bar" d="M341,277.7142857142857h18v22.285714285714278h-18Z" fill="#1b8a8f"/><path aria-label="country: Slovenia; Report Count: 18" role="graphics-symbol" aria-roledescription="bar" d="M381,284.5714285714286h18v15.428571428571388h-18Z" fill="#1b8a8f"/><path aria-label="country: Czechia; Report Count: 28" role="graphics-symbol" aria-roledescription="bar" d="M321,276h18v24h-18Z" fill="#1b8a8f"/><path aria-label="country: Italy; Report Count: 37" role="graphics-symbol" aria-roledescription="bar" d="M261,268.2857142857143h18v31.714285714285722h-18Z" fill="#1b8a8f"/><path aria-label="country: Luxembourg; Report Count: 39" role="graphics-symbol" aria-roledescription="bar" d="M241,266.57142857142856h18v33.428571428571445h-18Z" fill="#1b8a8f"/><path aria-label="country: Denmark; Report Count: 114" role="graphics-symbol" aria-roledescription="bar" d="M161,202.28571428571428h18v97.71428571428572h-18Z" fill="#1b8a8f"/><path aria-label="country: Sweden; Report Count: 305" role="graphics-symbol" aria-roledescription="bar" d="M21,38.57142857142857h18v261.42857142857144h-18Z" fill="#1b8a8f"/><path aria-label="country: Greece; Report Count: 34" role="graphics-symbol" aria-roledescription="bar" d="M301,270.85714285714283h18v29.142857142857167h-18Z" fill="#1b8a8f"/><path aria-label="country: Latvia; Report Count: 4" role="graphics-symbol" aria-roledescription="bar" d="M481,296.57142857142856h18v3.428571428571445h-18Z" fill="#1b8a8f"/><path aria-label="country: Croatia; Report Count: 25" role="graphics-symbol" aria-roledescription="bar" d="M361,278.57142857142856h18v21.428571428571445h-18Z" fill="#1b8a8f"/><path aria-label="country: Estonia; Report Count: 10" role="graphics-symbol" aria-roledescription="bar" d="M461,291.42857142857144h18v8.571428571428555h-18Z" fill="#1b8a8f"/><path aria-label="country: Norway; Report Count: 190" role="graphics-symbol" aria-roledescription="bar" d="M101,137.14285714285717h18v162.85714285714283h-18Z" fill="#1b8a8f"/><path aria-label="country: Lithuania; Report Count: 11" role="graphics-symbol" aria-roledescription="bar" d="M441,290.57142857142856h18v9.428571428571445h-18Z" fill="#1b8a8f"/><path aria-label="country: Malta; Report Count: 37" role="graphics-symbol" aria-roledescription="bar" d="M281,268.2857142857143h18v31.714285714285722h-18Z" fill="#1b8a8f"/><path aria-label="country: Hungary; Report Count: 16" role="graphics-symbol" aria-roledescription="bar" d="M421,286.2857142857143h18v13.714285714285722h-18Z" fill="#1b8a8f"/><path aria-label="country: Iceland; Report Count: 17" role="graphics-symbol" aria-roledescription="bar" d="M401,285.42857142857144h18v14.571428571428555h-18Z" fill="#1b8a8f"/></g><g class="mark-group role-title"><g transform="translate(250,-36)"><path class="background" aria-hidden="true" d="M0,0h0v0h0Z" pointer-events="none"/><g><g class="mark-text role-title-text" role="graphics-symbol" aria-roledescription="title" aria-label="Title text 'ESEF Report Availability by Country'" pointer-events="none"><text text-anchor="middle" transform="translate(0,10)" font-family="sans-serif" font-size="13px" font-weight="bold" fill="#000" opacity="1">ESEF Report Availability by Country</text></g><g class="mark-text role-title-subtitle" role="graphics-symbol" aria-roledescription="subtitle" aria-label="Subtitle text '(XBRL Repository)'" pointer-events="none"><text text-anchor="middle" transform="translate(0,25)" font-family="sans-serif" font-size="12px" fill="#000" opacity="1">(XBRL Repository)</text></g></g><path class="foreground" aria-hidden="true" d="" pointer-events="none" display="none"/></g></g></g><path class="foreground" aria-hidden="true" d="" display="none"/></g></g></g></svg>
