<?xml version="1.0" encoding="utf-8"?>
<!DOCTYPE svg PUBLIC "-//W3C//DTD SVG 1.1//EN" "http://www.w3.org/Graphics/SVG/1.1/DTD/svg11.dtd">
<svg xmlns="http://www.w3.org/2000/svg" xmlns:xlink="http://www.w3.org/1999/xlink" version="1.1" class="marks" width="550" height="432" viewBox="0 0 550 432"><rect width="550" height="432" fill="white"/><g fill="none" stroke-miterlimit="10" transform="translate(45,41)"><g class="mark-group role-frame root" role="graphics-object" aria-roledescription="group mark container"><g transform="translate(0,0)"><path class="background" aria-hidden="true" d="M0.5,0.5h500v300h-500Z" stroke="#ddd"/><g><g class="mark-group role-axis" aria-hidden="true"><g transform="translate(0.5,0.5)"><path class="background" aria-hidden="true" d="M0,0h0v0h0Z" pointer-events="none"/><g><g class="mark-rule role-axis-grid" pointer-events="none"><line transform="translate(0,300)" x2="500" y2="0" stroke="#ddd" stroke-width="1" opacity="1"/><line transform="translate(0,273)" x2="500" y2="0" stroke="#ddd" stroke-width="1" opacity="1"/><line transform="translate(0,245)" x2="500" y2="0" stroke="#ddd" stroke-width="1" opacity="1"/><line transform="translate(0,218)" x2="500" y2="0" stroke="#ddd" stroke-width="1" opacity="1"/><line transform="translate(0,191)" x2="500" y2="0" stroke="#ddd" stroke-width="1" opacity="1"/><line transform="translate(0,164)" x2="500" y2="0" stroke="#ddd" stroke-width="1" opacity="1"/><line transform="translate(0,136)" x2="500" y2="0" stroke="#ddd" stroke-width="1" opacity="1"/><line transform="translate(0,109)" x2="500" y2="0" stroke="#ddd" stroke-width="1" opacity="1"/><line transform="translate(0,82)" x2="500" y2="0" stroke="#ddd" stroke-width="1" opacity="1"/><line transform="translate(0,55)" x2="500" y2="0" stroke="#ddd" stroke-width="1" opacity="1"/><line transform="translate(0,27)" x2="500" y2="0" stroke="#ddd" stroke-width="1" opacity="1"/><line transform="translate(0,0)" x2="500" y2="0" stroke="#ddd" stroke-width="1" opacity="1"/></g></g><path class="foreground" aria-hidden="true" d="" pointer-events="none" display="none"/></g></g><g class="mark-group role-axis" role="graphics-symbol" aria-roledescription="axis" aria-label="X-axis for a discrete scale with 24 values: Germany, United Kingdom, Poland, Finland, France, ending with Latvia"><g transform="translate(0.5,300.5)"><path class="background" aria-hidden="true" d="M0,0h0v0h0Z" pointer-events="none"/><g><g class="mark-rule role-axis-tick" pointer-events="none"><line transform="translate(10,0)" x2="0" y2="5" stroke="#888" stroke-width="1" opacity="1"/><line transform="translate(31,0)" x2="0" y2="5" stroke="#888" stroke-width="1" opacity="1"/><line transform="translate(52,0)" x2="0" y2="5" stroke="#888" stroke-width="1" opacity="1"/><line transform="translate(72,0)" x2="0" y2="5" stroke="#888" stroke-width="1" opacity="1"/><line transform="translate(93,0)" x2="0" y2="5" stroke="#888" stroke-width="1" opacity="1"/><line transform="translate(114,0)" x2="0" y2="5" stroke="#888" stroke-width="1" opacity="1"/><line transform="translate(135,0)" x2="0" y2="5" stroke="#888" stroke-width="1" opacity="1"/><line transform="translate(156,0)" x2="0" y2="5" stroke="#888" stroke-width="1" opacity="1"/><line transform="translate(177,0)" x2="0" y2="5" stroke="#888" stroke-width="1" opacity="1"/><line transform="translate(197,0)" x2="0" y2="5" stroke="#888" stroke-width="1" opacity="1"/><line transform="translate(218,0)" x2="0" y2="5" stroke="#888" stroke-width="1" opacity="1"/><line transform="translate(239,0)" x2="0" y2="5" stroke="#888" stroke-width="1" opacity="1"/><line transform="translate(260,0)" x2="0" y2="5" stroke="#888" stroke-width="1" opacity="1"/><line transform="translate(281,0)" x2="0" y2="5" stroke="#888" stroke-width="1" opacity="1"/><line transform="translate(302,0)" x2="0" y2="5" stroke="#888" stroke-width="1" opacity="1"/><line transform="translate(322,0)" x2="0" y2="5" stroke="#888" stroke-width="1" opacity="1"/><line transform="translate(343,0)" x2="0" y2="5" stroke="#888" stroke-width="1" opacity="1"/><line transform="translate(364,0)" x2="0" y2="5" stroke="#888" stroke-width="1" opacity="1"/><line transform="translate(385,0)" x2="0" y2="5" stroke="#888" stroke-width="1" opacity="1"/><line transform="translate(406,0)" x2="0" y2="5" stroke="#888" stroke-width="1" opacity="1"/><line transform="translate(427,0)" x2="0" y2="5" stroke="#888" stroke-width="1" opacity="1"/><line transform="translate(447,0)" x2="0" y2="5" stroke="#888" stroke-width="1" opacity="1"/><line transform="translate(468,0)" x2="0" y2="5" stroke="#888" stroke-width="1" opacity="1"/><line transform="translate(489,0)" x2="0" y2="5" stroke="#888" stroke-width="1" opacity="1"/></g><g class="mark-text role-axis-label" pointer-events="none"><text text-anchor="end" transform="translate(9.916666666666686,7) rotate(270) translate(0,3)" font-family="sans-serif" font-size="10px" fill="#000" opacity="1">Germany</text><text text-anchor="end" transform="translate(30.750000000000018,7) rotate(270) translate(0,3)" font-family="sans-serif" font-size="10px" fill="#000" opacity="1">United Kingdom</text><text text-anchor="end" transform="translate(51.58333333333335,7) rotate(270) translate(0,3)" font-family="sans-serif" font-size="10px" fill="#000" opacity="1">Poland</text><text text-anchor="end" transform="translate(72.41666666666669,7) rotate(270) translate(0,3)" font-family="sans-serif" font-size="10px" fill="#000" opacity="1">Finland</text><text text-anchor="end" transform="translate(93.25000000000001,7) rotate(270) translate(0,3)" font-family="sans-serif" font-size="10px" fill="#000" opacity="1">France</text><text text-anchor="end" transform="translate(114.08333333333334,7) rotate(270) translate(0,3)" font-family="sans-serif" font-size="10px" fill="#000" opacity="1">Sweden</text><text text-anchor="end" transform="translate(134.91666666666669,7) rotate(270) translate(0,3)" font-family="sans-serif" font-size="10px" fill="#000" opacity="1">Spain</text><text text-anchor="end" transform="translate(155.75,7) rotate(270) translate(0,3)" font-family="sans-serif" font-size="10px" fill="#000" opacity="1">Netherlands</text><text text-anchor="end" transform="translate(176.58333333333334,7) rotate(270) translate(0,3)" font-family="sans-serif" font-size="10px" fill="#000" opacity="1">Austria</text><text text-anchor="end" transform="translate(197.41666666666669,7) rotate(270) translate(0,3)" font-family="sans-serif" font-size="10px" fill="#000" opacity="1">Denmark</text><text text-anchor="end" transform="translate(218.25,7) rotate(270) translate(0,3)" font-family="sans-serif" font-size="10px" fill="#000" opacity="1">Norway</text><text text-anchor="end" transform="translate(239.08333333333334,7) rotate(270) translate(0,3)" font-family="sans-serif" font-size="10px" fill="#000" opacity="1">Belgium</text><text text-anchor="end" transform="translate(259.9166666666667,7) rotate(270) translate(0,3)" font-family="sans-serif" font-size="10px" fill="#000" opacity="1">Czechia</text><text text-anchor="end" transform="translate(280.75,7) rotate(270) translate(0,3)" font-family="sans-serif" font-size="10px" fill="#000" opacity="1">Luxembourg</text><text text-anchor="end" transform="translate(301.5833333333333,7) rotate(270) translate(0,3)" font-family="sans-serif" font-size="10px" fill="#000" opacity="1">Slovenia</text><text text-anchor="end" transform="translate(322.4166666666667,7) rotate(270) translate(0,3)" font-family="sans-serif" font-size="10px" fill="#000" opacity="1">Iceland</text><text text-anchor="end" transform="translate(343.25,7) rotate(270) translate(0,3)" font-family="sans-serif" font-size="10px" fill="#000" opacity="1">Greece</text><text text-anchor="end" transform="translate(364.0833333333333,7) rotate(270) translate(0,3)" font-family="sans-serif" font-size="10px" fill="#000" opacity="1">Estonia</text><text text-anchor="end" transform="translate(384.9166666666667,7) rotate(270) translate(0,3)" font-family="sans-serif" font-size="10px" fill="#000" opacity="1">Croatia</text><text text-anchor="end" transform="translate(405.75,7) rotate(270) translate(0,3)" font-family="sans-serif" font-size="10px" fill="#000" opacity="1">null</text><text text-anchor="end" transform="translate(426.5833333333333,7) rotate(270) translate(0,3)" font-family="sans-serif" font-size="10px" fill="#000" opacity="1">Portugal</text><text text-anchor="end" transform="translate(447.4166666666667,7) rotate(270) translate(0,3)" font-family="sans-serif" font-size="10px" fill="#000" opacity="1">Lithuania</text><text text-anchor="end" transform="translate(468.25,7) rotate(270) translate(0,3)" font-family="sans-serif" font-size="10px" fill="#000" opacity="1">Hungary</text><text text-anchor="end" transform="translate(489.0833333333333,7) rotate(270) translate(0,3)" font-family="sans-serif" font-size="10px" fill="#000" opacity="1">Latvia</text></g><g class="mark-rule role-axis-domain" pointer-events="none"><line transform="translate(0,0)" x2="500" y2="0" stroke="#888" stroke-width="1" opacity="1"/></g></g><path class="foreground" aria-hidden="true" d="" pointer-events="none" display="none"/></g></g><g class="mark-group role-axis" role="graphics-symbol" aria-roledescription="axis" aria-label="Y-axis titled 'Report Count' for a linear scale with values from 0 to 220"><g transform="translate(0.5,0.5)"><path class="background" aria-hidden="true" d="M0,0h0v0h0Z" pointer-events="none"/><g><g class="mark-rule role-axis-tick" pointer-events="none"><line transform="translate(0,300)" x2="-5" y2="0" stroke="#888" stroke-width="1" opacity="1"/><line transform="translate(0,273)" x2="-5" y2="0" stroke="#888" stroke-width="1" opacity="1"/><line transform="translate(0,245)" x2="-5" y2="0" stroke="#888" stroke-width="1" opacity="1"/><line transform="translate(0,218)" x2="-5" y2="0" stroke="#888" stroke-width="1" opacity="1"/><line transform="translate(0,191)" x2="-5" y2="0" stroke="#888" stroke-width="1" opacity="1"/><line transform="translate(0,164)" x2="-5" y2="0" stroke="#888" stroke-width="1" opacity="1"/><line transform="translate(0,136)" x2="-5" y2="0" stroke="#888" stroke-width="1" opacity="1"/><line transform="translate(0,109)" x2="-5" y2="0" stroke="#888" stroke-width="1" opacity="1"/><line transform="translate(0,82)" x2="-5" y2="0" stroke="#888" stroke-width="1" opacity="1"/><line transform="translate(0,55)" x2="-5" y2="0" stroke="#888" stroke-width="1" opacity="1"/><line transform="translate(0,27)" x2="-5" y2="0" stroke="#888" stroke-width="1" opacity="1"/><line transform="translate(0,0)" x2="-5" y2="0" stroke="#888" stroke-width="1" opacity="1"/></g><g class="mark-text role-axis-label" pointer-events="none"><text text-anchor="end" transform="translate(-7,303)" font-family="sans-serif" font-size="10px" fill="#000" opacity="1">0</text><text text-anchor="end" transform="translate(-7,275.7272727272727)" font-family="sans-serif" font-size="10px" fill="#000" opacity="1">20</text><text text-anchor="end" transform="translate(-7,248.45454545454544)" font-family="sans-serif" font-size="10px" fill="#000" opacity="1">40</text><text text-anchor="end" transform="translate(-7,221.1818181818182)" font-family="sans-serif" font-size="10px" fill="#000" opacity="1">60</text><text text-anchor="end" transform="translate(-7,193.9090909090909)" font-family="sans-serif" font-size="10px" fill="#000" opacity="1">80</text><text text-anchor="end" transform="translate(-7,166.63636363636363)" font-family="sans-serif" font-size="10px" fill="#000" opacity="1">100</text><text text-anchor="end" transform="translate(-7,139.36363636363637)" font-family="sans-serif" font-size="10px" fill="#000" opacity="1">120</text><text text-anchor="end" transform="translate(-7,112.0909090909091)" font-family="sans-serif" font-size="10px" fill="#000" opacity="1">140</text><text text-anchor="end" transform="translate(-7,84.81818181818181)" font-family="sans-serif" font-size="10px" fill="#000" opacity="1">160</text><text text-anchor="end" transform="translate(-7,57.54545454545453)" font-family="sans-serif" font-size="10px" fill="#000" opacity="1">180</text><text text-anchor="end" transform="translate(-7,30.27272727272728)" font-family="sans-serif" font-size="10px" fill="#000" opacity="1">200</text><text text-anchor="end" transform="translate(-7,3)" font-family="sans-serif" font-size="10px" fill="#000" opacity="1">220</text></g><g class="mark-rule role-axis-domain" pointer-events="none"><line transform="translate(0,300)" x2="0" y2="-300" stroke="#888" stroke-width="1" opacity="1"/></g><g class="mark-text role-axis-title" pointer-events="none"><text text-anchor="middle" transform="translate(-29,150) rotate(-90) translate(0,-2)" font-family="sans-serif" font-size="11px" font-weight="bold" fill="#000" opacity="1">Report Count</text></g></g><path class="foreground" aria-hidden="true" d="" pointer-events="none" display="none"/></g></g><g class="mark-rect role-mark marks" role="graphics-object" aria-roledescription="rect mark container"><path aria-label="country: Czechia; Report Count: 28" role="graphics-symbol" aria-roledescription="bar" d="M251.04166666666669,261.8181818181818h18.75v38.18181818181819h-18.75Z" fill="#1b8a8f"/><path aria-label="country: Germany; Report Count: 208" role="graphics-symbol" aria-roledescription="bar" d="M1.0416666666666856,16.36363636363637h18.75v283.6363636363636h-18.75Z" fill="#1b8a8f"/><path aria-label="country: France; Report Count: 126" role="graphics-symbol" aria-roledescription="bar" d="M84.37500000000001,128.1818181818182h18.75v171.8181818181818h-18.75Z" fill="#1b8a8f"/><path aria-label="country: Netherlands; Report Count: 93" role="graphics-symbol" aria-roledescription="bar" d="M146.875,173.1818181818182h18.75v126.81818181818181h-18.75Z" fill="#1b8a8f"/><path aria-label="country: Spain; Report Count: 96" role="graphics-symbol" aria-roledescription="bar" d="M126.04166666666669,169.09090909090912h18.75v130.90909090909088h-18.75Z" fill="#1b8a8f"/><path aria-label="country: Belgium; Report Count: 44" role="graphics-symbol" aria-roledescription="bar" d="M230.20833333333334,240h18.75v60h-18.75Z" fill="#1b8a8f"/><path aria-label="country: United Kingdom; Report Count: 141" role="graphics-symbol" aria-roledescription="bar" d="M21.875000000000018,107.72727272727273h18.75v192.27272727272725h-18.75Z" fill="#1b8a8f"/><path aria-label="country: Austria; Report Count: 79" role="graphics-symbol" aria-roledescription="bar" d="M167.70833333333334,192.27272727272725h18.75v107.72727272727275h-18.75Z" fill="#1b8a8f"/><path aria-label="country: Finland; Report Count: 134" role="graphics-symbol" aria-roledescription="bar" d="M63.541666666666686,117.27272727272727h18.75v182.72727272727275h-18.75Z" fill="#1b8a8f"/><path aria-label="country: Poland; Report Count: 136" role="graphics-symbol" aria-roledescription="bar" d="M42.70833333333335,114.54545454545455h18.75v185.45454545454544h-18.75Z" fill="#1b8a8f"/><path aria-label="country: Luxembourg; Report Count: 23" role="graphics-symbol" aria-roledescription="bar" d="M271.875,268.6363636363636h18.75v31.363636363636374h-18.75Z" fill="#1b8a8f"/><path aria-label="country: Denmark; Report Count: 70" role="graphics-symbol" aria-roledescription="bar" d="M188.54166666666669,204.54545454545456h18.75v95.45454545454544h-18.75Z" fill="#1b8a8f"/><path aria-label="country: Sweden; Report Count: 105" role="graphics-symbol" aria-roledescription="bar" d="M105.20833333333334,156.8181818181818h18.75v143.1818181818182h-18.75Z" fill="#1b8a8f"/><path aria-label="country: Portugal; Report Count: 4" role="graphics-symbol" aria-roledescription="bar" d="M417.7083333333333,294.54545454545456h18.75v5.454545454545439h-18.75Z" fill="#1b8a8f"/><path aria-label="country: Slovenia; Report Count: 19" role="graphics-symbol" aria-roledescription="bar" d="M292.7083333333333,274.09090909090907h18.75v25.909090909090935h-18.75Z" fill="#1b8a8f"/><path aria-label="country: Greece; Report Count: 11" role="graphics-symbol" aria-roledescription="bar" d="M334.375,285h18.75v15h-18.75Z" fill="#1b8a8f"/><path aria-label="country: Latvia; Report Count: 1" role="graphics-symbol" aria-roledescription="bar" d="M480.2083333333333,298.6363636363636h18.75v1.363636363636374h-18.75Z" fill="#1b8a8f"/><path aria-label="country: Estonia; Report Count: 9" role="graphics-symbol" aria-roledescription="bar" d="M355.2083333333333,287.72727272727275h18.75v12.272727272727252h-18.75Z" fill="#1b8a8f"/><path aria-label="country: Norway; Report Count: 63" role="graphics-symbol" aria-roledescription="bar" d="M209.375,214.0909090909091h18.75v85.9090909090909h-18.75Z" fill="#1b8a8f"/><path aria-label="country: Lithuania; Report Count: 3" role="graphics-symbol" aria-roledescription="bar" d="M438.5416666666667,295.9090909090909h18.75v4.090909090909122h-18.75Z" fill="#1b8a8f"/><path aria-label="country: Hungary; Report Count: 2" role="graphics-symbol" aria-roledescription="bar" d="M459.375,297.2727272727273h18.75v2.727272727272691h-18.75Z" fill="#1b8a8f"/><path aria-label="country: Croatia; Report Count: 6" role="graphics-symbol" aria-roledescription="bar" d="M376.0416666666667,291.8181818181818h18.75v8.181818181818187h-18.75Z" fill="#1b8a8f"/><path aria-label="country: Iceland; Report Count: 16" role="graphics-symbol" aria-roledescription="bar" d="M313.5416666666667,278.1818181818182h18.75v21.818181818181813h-18.75Z" fill="#1b8a8f"/><path aria-label="country: null; Report Count: 6" role="graphics-symbol" aria-roledescription="bar" d="M396.875,291.8181818181818h18.75v8.181818181818187h-18.75Z" fill="#1b8a8f"/></g><g class="mark-group role-title"><g transform="translate(250,-36)"><path class="background" aria-hidden="true" d="M0,0h0v0h0Z" pointer-events="none"/><g><g class="mark-text role-title-text" role="graphics-symbol" aria-roledescription="title" aria-label="Title text 'ESEF Report Availability by Country'" pointer-events="none"><text text-anchor="middle" transform="translate(0,10)" font-family="sans-serif" font-size="13px" font-weight="bold" fill="#000" opacity="1">ESEF Report Availability by Country</text></g><g class="mark-text role-title-subtitle" role="graphics-symbol" aria-roledescription="subtitle" aria-label="Subtitle text '(XBRL Repository)'" pointer-events="none"><text text-anchor="middle" transform="translate(0,25)" font-family="sans-serif" font-size="12px" fill="#000" opacity="1">(XBRL Repository)</text></g></g><path class="foreground" aria-hidden="true" d="" pointer-events="none" display="none"/></g></g></g><path class="foreground" aria-hidden="true" d="" display="none"/></g></g></g></svg>
